<svg version="1.1" id="Layer_1" xmlns="http://www.w3.org/2000/svg" xmlns:xlink="http://www.w3.org/1999/xlink" x="0px" y="0px"
	 width="100%" viewBox="0 0 512 512" enable-background="new 0 0 512 512" xml:space="preserve">
<path fill="#F7F7F6" opacity="1.000000" stroke="none" 
	d="
M224.000000,1.000002 
	C320.288879,1.000000 416.577759,1.000000 512.933350,1.000000 
	C512.933350,171.543411 512.933350,342.086853 512.933350,513.000000 
	C465.312531,513.000000 417.624115,513.000000 369.517822,512.613464 
	C369.733002,509.717499 370.912628,507.209320 370.918213,504.698486 
	C371.026794,455.867889 371.130798,407.036346 370.899048,358.206604 
	C370.845337,346.889313 367.641174,336.114319 363.540009,325.472076 
	C359.312103,314.501007 352.488373,305.430359 345.035675,296.776215 
	C337.858307,288.441803 329.254883,281.650604 319.054871,276.637451 
	C318.078949,275.579071 317.316071,274.571167 316.312897,274.181000 
	C306.580505,270.395508 296.970306,266.185211 287.009766,263.121887 
	C270.742981,258.119141 253.843506,258.814056 237.040100,258.513000 
	C236.990601,249.691849 236.961121,241.336884 237.115082,232.697083 
	C240.308655,229.348633 243.466553,226.415375 246.303299,223.198883 
	C258.542328,209.321289 266.064911,193.176178 266.804840,174.665115 
	C267.534241,156.417328 266.944946,138.116821 266.988159,119.383682 
	C267.341827,96.479561 268.260010,74.017479 267.762543,51.586803 
	C267.290375,30.295307 257.744751,13.971476 237.440384,5.291888 
	C233.135376,3.451605 228.489059,2.409731 224.000000,1.000002 
M501.377808,198.862915 
	C502.188049,197.039520 503.093262,195.251846 503.794525,193.387466 
	C517.876892,155.949341 512.298706,121.576569 485.086487,92.353035 
	C461.603699,67.134583 431.668396,58.734238 397.655884,64.962769 
	C356.537201,72.492622 323.208466,111.115875 322.057465,152.853790 
	C321.215454,183.386230 332.326385,208.843033 355.360016,228.744797 
	C378.286926,248.554321 405.044189,255.958786 434.837311,250.148193 
	C465.072052,244.251465 486.761353,226.592072 501.377808,198.862915 
z"/>
<path fill="#F4E6D9" opacity="1.000000" stroke="none" 
	d="
M319.156403,276.974518 
	C329.254883,281.650604 337.858307,288.441803 345.035675,296.776215 
	C352.488373,305.430359 359.312103,314.501007 363.540009,325.472076 
	C367.641174,336.114319 370.845337,346.889313 370.899048,358.206604 
	C371.130798,407.036346 371.026794,455.867889 370.918213,504.698486 
	C370.912628,507.209320 369.733002,509.717499 369.049988,512.613464 
	C352.979095,513.000000 336.958221,513.000000 320.470825,512.531372 
	C320.005432,472.964478 320.019318,433.866272 319.972626,394.768127 
	C319.970093,392.651245 320.065308,390.141663 319.016876,388.528656 
	C317.962372,386.906281 315.372620,385.101959 313.753357,385.346771 
	C312.013397,385.609863 310.363373,387.994812 309.180298,389.787872 
	C308.562103,390.724792 309.011536,392.378784 309.011322,393.708923 
	C309.005066,433.472626 309.002838,473.236298 309.000000,513.000000 
	C227.979111,513.000000 146.958206,513.000000 65.470978,512.531372 
	C65.003609,472.965302 65.002892,433.867920 65.000381,394.770538 
	C65.000282,393.273254 65.504768,391.478241 64.858040,390.344574 
	C63.731422,388.369812 62.076241,385.688263 60.293961,385.390594 
	C58.641281,385.114594 56.023998,387.204071 54.785099,388.934692 
	C53.784630,390.332275 54.022499,392.746307 54.020813,394.709717 
	C53.986935,434.139801 53.997990,473.569885 54.000000,513.000000 
	C37.979103,513.000000 21.958210,513.000000 5.426112,512.612793 
	C4.276255,509.517212 3.086948,506.810181 3.080703,504.100403 
	C2.968612,455.457916 2.869280,406.814545 3.092598,358.172852 
	C3.147680,346.175385 6.183985,334.630920 11.146652,323.631256 
	C17.832376,308.812408 27.576468,296.360107 40.299488,286.341400 
	C45.199310,282.483063 50.708759,279.398895 55.998657,276.316650 
	C56.448193,277.585266 56.682243,278.614410 57.254436,279.395996 
	C65.856934,291.147308 74.437187,302.915924 83.156487,314.580444 
	C95.542511,331.150269 108.126137,347.572937 120.447296,364.190491 
	C125.882690,371.521210 128.365601,371.701233 135.258652,365.392548 
	C139.108093,361.869507 143.655853,359.109436 148.102203,356.288483 
	C152.065109,364.356781 155.814728,372.142120 159.364716,380.315002 
	C153.584320,418.395508 148.024887,456.091705 142.403534,493.778656 
	C141.365021,500.741180 143.148285,502.993134 150.200974,502.995758 
	C174.698669,503.004852 199.196350,503.003906 223.694046,502.997101 
	C231.008362,502.995056 232.641251,500.820953 231.508591,493.410431 
	C228.919281,476.469299 226.514969,459.500031 223.969696,442.552063 
	C220.833099,421.666626 217.629639,400.791199 214.516571,379.597412 
	C214.597641,378.857300 214.617249,378.431274 214.775909,377.771912 
	C214.910538,377.357513 214.906143,377.176483 215.089005,376.698364 
	C218.203949,370.935944 221.131622,365.470612 224.426270,360.007202 
	C227.965729,362.271698 231.327469,364.314636 234.267685,366.846954 
	C239.015442,370.936127 243.373474,370.994293 247.112823,366.406860 
	C258.949280,351.885925 270.775238,337.356018 282.524750,322.764771 
	C294.783966,307.540527 306.949768,292.241089 319.156403,276.974518 
z"/>
<path fill="#F7F7F7" opacity="1.000000" stroke="none" 
	d="
M55.940445,275.962006 
	C50.708759,279.398895 45.199310,282.483063 40.299488,286.341400 
	C27.576468,296.360107 17.832376,308.812408 11.146652,323.631256 
	C6.183985,334.630920 3.147680,346.175385 3.092598,358.172852 
	C2.869280,406.814545 2.968612,455.457916 3.080703,504.100403 
	C3.086948,506.810181 4.276255,509.517212 4.957455,512.612793 
	C3.667467,513.000000 2.334934,513.000000 1.001801,513.000000 
	C1.001200,342.436584 1.001200,171.873138 1.001200,1.000000 
	C71.687256,1.000000 142.374969,1.000000 213.429001,1.338385 
	C210.346542,3.830798 209.648285,6.754784 210.542618,10.688475 
	C212.205612,18.003296 209.459152,23.562708 202.505539,26.397308 
	C198.257446,28.129007 193.624084,29.742849 189.120544,29.869173 
	C174.186935,30.288057 159.233688,29.984898 144.288025,30.002413 
	C122.376587,30.028088 103.958733,44.151405 101.348122,65.922913 
	C99.224106,83.636368 100.455536,101.752167 100.139023,120.176651 
	C100.055107,137.150482 99.828865,153.640121 100.067535,170.123047 
	C100.280693,184.845139 103.758026,198.937134 111.994743,211.204880 
	C117.225571,218.995636 123.986534,225.759048 130.026260,233.452484 
	C129.961731,242.267685 129.932251,250.613586 129.440308,258.968109 
	C113.634537,258.494110 98.336594,259.209137 83.725189,264.187469 
	C74.228760,267.423035 65.186302,271.990997 55.940445,275.962006 
z"/>
<path fill="#644B43" opacity="1.000000" stroke="none" 
	d="
M100.198990,119.689545 
	C100.455536,101.752167 99.224106,83.636368 101.348122,65.922913 
	C103.958733,44.151405 122.376587,30.028088 144.288025,30.002413 
	C159.233688,29.984898 174.186935,30.288057 189.120544,29.869173 
	C193.624084,29.742849 198.257446,28.129007 202.505539,26.397308 
	C209.459152,23.562708 212.205612,18.003296 210.542618,10.688475 
	C209.648285,6.754784 210.346542,3.830798 213.897659,1.338385 
	C217.030594,1.000000 220.061188,1.000000 223.545898,1.000002 
	C228.489059,2.409731 233.135376,3.451605 237.440384,5.291888 
	C257.744751,13.971476 267.290375,30.295307 267.762543,51.586803 
	C268.260010,74.017479 267.341827,96.479561 266.637634,119.297592 
	C253.523438,114.016785 240.307297,114.935555 226.976196,116.415848 
	C214.104752,117.845093 201.213821,119.540352 188.292786,119.978630 
	C168.634583,120.645439 155.157623,111.068604 147.557190,92.979362 
	C142.902740,81.901604 138.840271,81.191040 130.211960,89.710014 
	C129.620255,90.294220 129.095261,90.945839 128.505829,91.532547 
	C119.073433,100.921448 109.635590,110.304871 100.198990,119.689545 
z"/>
<path fill="#F6D0AC" opacity="1.000000" stroke="none" 
	d="
M309.458069,513.000000 
	C309.002838,473.236298 309.005066,433.472626 309.011322,393.708923 
	C309.011536,392.378784 308.562103,390.724792 309.180298,389.787872 
	C310.363373,387.994812 312.013397,385.609863 313.753357,385.346771 
	C315.372620,385.101959 317.962372,386.906281 319.016876,388.528656 
	C320.065308,390.141663 319.970093,392.651245 319.972626,394.768127 
	C320.019318,433.866272 320.005432,472.964478 320.002167,512.531372 
	C316.638702,513.000000 313.277435,513.000000 309.458069,513.000000 
z"/>
<path fill="#F6CFAD" opacity="1.000000" stroke="none" 
	d="
M54.458069,513.000000 
	C53.997990,473.569885 53.986935,434.139801 54.020813,394.709717 
	C54.022499,392.746307 53.784630,390.332275 54.785099,388.934692 
	C56.023998,387.204071 58.641281,385.114594 60.293961,385.390594 
	C62.076241,385.688263 63.731422,388.369812 64.858040,390.344574 
	C65.504768,391.478241 65.000282,393.273254 65.000381,394.770538 
	C65.002892,433.867920 65.003609,472.965302 65.002319,512.531372 
	C61.638714,513.000000 58.277424,513.000000 54.458069,513.000000 
z"/>
<path fill="#F8BC9A" opacity="1.000000" stroke="none" 
	d="
M100.139023,120.176651 
	C109.635590,110.304871 119.073433,100.921448 128.505829,91.532547 
	C129.095261,90.945839 129.620255,90.294220 130.211960,89.710014 
	C138.840271,81.191040 142.902740,81.901604 147.557190,92.979362 
	C155.157623,111.068604 168.634583,120.645439 188.292786,119.978630 
	C201.213821,119.540352 214.104752,117.845093 226.976196,116.415848 
	C240.307297,114.935555 253.523438,114.016785 266.583679,119.753357 
	C266.944946,138.116821 267.534241,156.417328 266.804840,174.665115 
	C266.064911,193.176178 258.542328,209.321289 246.303299,223.198883 
	C243.466553,226.415375 240.308655,229.348633 236.783081,232.759216 
	C232.611755,235.837784 229.157074,238.905640 225.261429,241.236465 
	C214.578049,247.628510 202.692398,251.155991 190.469818,251.777527 
	C169.133408,252.862518 149.041397,248.508347 132.304779,233.910141 
	C131.727005,233.406189 130.816650,233.283539 130.061310,232.983170 
	C123.986534,225.759048 117.225571,218.995636 111.994743,211.204880 
	C103.758026,198.937134 100.280693,184.845139 100.067535,170.123047 
	C99.828865,153.640121 100.055107,137.150482 100.139023,120.176651 
z"/>
<path fill="#F7CFAB" opacity="1.000000" stroke="none" 
	d="
M55.998657,276.316650 
	C65.186302,271.990997 74.228760,267.423035 83.725189,264.187469 
	C98.336594,259.209137 113.634537,258.494110 129.879456,258.982422 
	C132.522415,258.992462 134.263748,258.996857 136.034515,259.346375 
	C136.477798,260.396942 136.760757,261.235931 137.324585,261.788147 
	C151.597534,275.766815 165.910507,289.704590 180.188553,303.678040 
	C183.134430,306.561066 185.599380,305.790405 188.338638,303.224884 
	C195.733459,296.299103 203.380615,289.641357 210.732407,282.671295 
	C218.927917,274.901337 226.908264,266.904419 235.328293,259.004059 
	C236.136261,258.994293 236.598190,258.986725 237.060135,258.979156 
	C253.843506,258.814056 270.742981,258.119141 287.009766,263.121887 
	C296.970306,266.185211 306.580505,270.395508 316.312897,274.181000 
	C317.316071,274.571167 318.078949,275.579071 319.054871,276.637451 
	C306.949768,292.241089 294.783966,307.540527 282.524750,322.764771 
	C270.775238,337.356018 258.949280,351.885925 247.112823,366.406860 
	C243.373474,370.994293 239.015442,370.936127 234.267685,366.846954 
	C231.327469,364.314636 227.965729,362.271698 224.436920,359.632690 
	C223.588852,358.289886 223.327194,357.062317 222.570969,356.395966 
	C209.961502,345.284424 197.290131,334.243103 184.473679,323.047394 
	C174.502151,331.628876 164.616943,340.037109 154.864395,348.596527 
	C152.326569,350.823914 150.202835,353.523071 147.888916,356.005554 
	C143.655853,359.109436 139.108093,361.869507 135.258652,365.392548 
	C128.365601,371.701233 125.882690,371.521210 120.447296,364.190491 
	C108.126137,347.572937 95.542511,331.150269 83.156487,314.580444 
	C74.437187,302.915924 65.856934,291.147308 57.254436,279.395996 
	C56.682243,278.614410 56.448193,277.585266 55.998657,276.316650 
z"/>
<path fill="#F09655" opacity="1.000000" stroke="none" 
	d="
M501.208954,199.196823 
	C486.761353,226.592072 465.072052,244.251465 434.837311,250.148193 
	C405.044189,255.958786 378.286926,248.554321 355.360016,228.744797 
	C332.326385,208.843033 321.215454,183.386230 322.057465,152.853790 
	C323.208466,111.115875 356.537201,72.492622 397.655884,64.962769 
	C431.668396,58.734238 461.603699,67.134583 485.086487,92.353035 
	C512.298706,121.576569 517.876892,155.949341 503.794525,193.387466 
	C503.093262,195.251846 502.188049,197.039520 501.208954,199.196823 
M477.007660,206.532791 
	C488.687531,193.276550 494.303101,177.397308 494.820129,160.145721 
	C495.588593,134.504166 486.264221,112.911652 466.012665,96.467865 
	C446.701111,80.787369 424.696686,75.788269 400.651337,80.769753 
	C379.569427,85.137291 363.099335,96.775658 351.349335,114.993950 
	C341.632019,130.060577 337.315918,146.692566 339.285034,164.262970 
	C341.623505,185.129700 350.274628,203.090012 367.104797,216.813553 
	C381.019806,228.160049 396.600922,234.303467 414.380707,234.957718 
	C429.309509,235.507080 443.616852,232.522049 456.117889,224.225037 
	C463.479248,219.339279 469.775146,212.848267 477.007660,206.532791 
z"/>
<path fill="#F1C7AF" opacity="1.000000" stroke="none" 
	d="
M136.005081,259.001221 
	C134.263748,258.996857 132.522415,258.992462 130.341919,258.973755 
	C129.932251,250.613586 129.961731,242.267685 130.026260,233.452484 
	C130.816650,233.283539 131.727005,233.406189 132.304779,233.910141 
	C149.041397,248.508347 169.133408,252.862518 190.469818,251.777527 
	C202.692398,251.155991 214.578049,247.628510 225.261429,241.236465 
	C229.157074,238.905640 232.611755,235.837784 236.599640,233.044052 
	C236.961121,241.336884 236.990601,249.691849 237.040100,258.513000 
	C236.598190,258.986725 236.136261,258.994293 234.861664,259.007446 
	C201.367706,259.009094 168.686401,259.005157 136.005081,259.001221 
z"/>
<path fill="#8C4E45" opacity="1.000000" stroke="none" 
	d="
M214.455093,379.911469 
	C217.629639,400.791199 220.833099,421.666626 223.969696,442.552063 
	C226.514969,459.500031 228.919281,476.469299 231.508591,493.410431 
	C232.641251,500.820953 231.008362,502.995056 223.694046,502.997101 
	C199.196350,503.003906 174.698669,503.004852 150.200974,502.995758 
	C143.148285,502.993134 141.365021,500.741180 142.403534,493.778656 
	C148.024887,456.091705 153.584320,418.395508 159.709137,380.394775 
	C162.933975,380.724701 165.606827,381.871155 168.296936,381.913177 
	C180.882324,382.110016 193.474609,382.126038 206.059265,381.908478 
	C208.868530,381.859924 211.657028,380.608887 214.455093,379.911469 
z"/>
<path fill="#88281A" opacity="1.000000" stroke="none" 
	d="
M214.516571,379.597412 
	C211.657028,380.608887 208.868530,381.859924 206.059265,381.908478 
	C193.474609,382.126038 180.882324,382.110016 168.296936,381.913177 
	C165.606827,381.871155 162.933975,380.724701 159.908752,380.007263 
	C155.814728,372.142120 152.065109,364.356781 148.102203,356.288483 
	C150.202835,353.523071 152.326569,350.823914 154.864395,348.596527 
	C164.616943,340.037109 174.502151,331.628876 184.473679,323.047394 
	C197.290131,334.243103 209.961502,345.284424 222.570969,356.395966 
	C223.327194,357.062317 223.588852,358.289886 224.069977,359.630798 
	C221.131622,365.470612 218.203949,370.935944 214.927429,376.767883 
	C214.506897,377.226410 214.360199,377.337006 214.377579,377.406677 
	C214.429520,377.614807 214.545761,377.806885 214.636871,378.005249 
	C214.617249,378.431274 214.597641,378.857300 214.516571,379.597412 
z"/>
<path fill="#8C4E45" opacity="1.000000" stroke="none" 
	d="
M214.775909,377.771912 
	C214.545761,377.806885 214.429520,377.614807 214.377579,377.406677 
	C214.360199,377.337006 214.506897,377.226410 214.740173,377.065002 
	C214.906143,377.176483 214.910538,377.357513 214.775909,377.771912 
z"/>
<path fill="#F5E6D8" opacity="1.000000" stroke="none" 
	d="
M136.034515,259.346375 
	C168.686401,259.005157 201.367706,259.009094 234.515656,259.009644 
	C226.908264,266.904419 218.927917,274.901337 210.732407,282.671295 
	C203.380615,289.641357 195.733459,296.299103 188.338638,303.224884 
	C185.599380,305.790405 183.134430,306.561066 180.188553,303.678040 
	C165.910507,289.704590 151.597534,275.766815 137.324585,261.788147 
	C136.760757,261.235931 136.477798,260.396942 136.034515,259.346375 
z"/>
<path fill="#FAB646" opacity="1.000000" stroke="none" 
	d="
M476.778961,206.806015 
	C469.775146,212.848267 463.479248,219.339279 456.117889,224.225037 
	C443.616852,232.522049 429.309509,235.507080 414.380707,234.957718 
	C396.600922,234.303467 381.019806,228.160049 367.104797,216.813553 
	C350.274628,203.090012 341.623505,185.129700 339.285034,164.262970 
	C337.315918,146.692566 341.632019,130.060577 351.349335,114.993950 
	C363.099335,96.775658 379.569427,85.137291 400.651337,80.769753 
	C424.696686,75.788269 446.701111,80.787369 466.012665,96.467865 
	C486.264221,112.911652 495.588593,134.504166 494.820129,160.145721 
	C494.303101,177.397308 488.687531,193.276550 476.778961,206.806015 
M416.639740,221.935364 
	C418.714569,220.543549 422.194153,219.444656 422.558746,217.696228 
	C423.225952,214.496460 425.014526,213.855759 427.402191,212.998840 
	C440.328247,208.359726 448.576782,195.734024 447.934448,180.866638 
	C447.383209,168.106705 441.811127,158.063416 426.323151,153.352005 
	C423.712128,152.557739 422.925537,151.518494 422.952423,148.937790 
	C423.066895,137.946014 422.989014,126.952332 423.038269,115.959595 
	C423.042206,115.082123 423.480255,114.206604 423.777832,113.102829 
	C431.626862,117.302971 435.851898,123.238762 436.131165,131.965317 
	C436.184265,133.625656 437.497314,136.050873 438.877441,136.664276 
	C440.694061,137.471710 444.063080,137.716476 445.124908,136.618073 
	C446.794830,134.890656 448.087189,131.726242 447.814636,129.369812 
	C446.232239,115.690781 439.114105,106.032585 425.974335,101.076477 
	C424.740845,100.611229 423.949066,99.051895 422.862640,98.103096 
	C420.890900,96.381142 418.941498,93.583466 416.812897,93.417793 
	C415.054474,93.280937 412.992798,96.231880 411.179779,97.936188 
	C410.231201,98.827843 409.731995,100.335495 408.673035,100.943367 
	C406.398956,102.248741 403.907532,103.184059 401.480530,104.212975 
	C388.427399,109.746872 382.415955,127.926659 385.902649,140.551300 
	C388.881226,151.336090 395.964020,157.298370 406.111572,160.638916 
	C407.915527,161.232803 410.718018,162.890793 410.753662,164.124039 
	C411.103394,176.230011 410.964691,188.350098 410.964691,201.346680 
	C408.873596,200.660721 407.448792,200.449249 406.296967,199.772903 
	C399.994659,196.072250 397.264587,190.242340 397.040619,183.180923 
	C396.912415,179.139236 394.472351,177.366852 391.081329,177.173950 
	C387.636047,176.977966 385.537476,179.316696 385.122833,182.685852 
	C384.883911,184.627289 384.967377,186.719437 385.426514,188.617783 
	C388.460663,201.162750 395.841064,209.843994 408.299896,213.938995 
	C409.262482,214.255402 410.203156,214.967941 410.888458,215.733948 
	C412.634613,217.685715 414.230255,219.772110 416.639740,221.935364 
z"/>
<path fill="#FA9829" opacity="1.000000" stroke="none" 
	d="
M416.262939,221.869995 
	C414.230255,219.772110 412.634613,217.685715 410.888458,215.733948 
	C410.203156,214.967941 409.262482,214.255402 408.299896,213.938995 
	C395.841064,209.843994 388.460663,201.162750 385.426514,188.617783 
	C384.967377,186.719437 384.883911,184.627289 385.122833,182.685852 
	C385.537476,179.316696 387.636047,176.977966 391.081329,177.173950 
	C394.472351,177.366852 396.912415,179.139236 397.040619,183.180923 
	C397.264587,190.242340 399.994659,196.072250 406.296967,199.772903 
	C407.448792,200.449249 408.873596,200.660721 410.964691,201.346680 
	C410.964691,188.350098 411.103394,176.230011 410.753662,164.124039 
	C410.718018,162.890793 407.915527,161.232803 406.111572,160.638916 
	C395.964020,157.298370 388.881226,151.336090 385.902649,140.551300 
	C382.415955,127.926659 388.427399,109.746872 401.480530,104.212975 
	C403.907532,103.184059 406.398956,102.248741 408.673035,100.943367 
	C409.731995,100.335495 410.231201,98.827843 411.179779,97.936188 
	C412.992798,96.231880 415.054474,93.280937 416.812897,93.417793 
	C418.941498,93.583466 420.890900,96.381142 422.862640,98.103096 
	C423.949066,99.051895 424.740845,100.611229 425.974335,101.076477 
	C439.114105,106.032585 446.232239,115.690781 447.814636,129.369812 
	C448.087189,131.726242 446.794830,134.890656 445.124908,136.618073 
	C444.063080,137.716476 440.694061,137.471710 438.877441,136.664276 
	C437.497314,136.050873 436.184265,133.625656 436.131165,131.965317 
	C435.851898,123.238762 431.626862,117.302971 423.777832,113.102829 
	C423.480255,114.206604 423.042206,115.082123 423.038269,115.959595 
	C422.989014,126.952332 423.066895,137.946014 422.952423,148.937790 
	C422.925537,151.518494 423.712128,152.557739 426.323151,153.352005 
	C441.811127,158.063416 447.383209,168.106705 447.934448,180.866638 
	C448.576782,195.734024 440.328247,208.359726 427.402191,212.998840 
	C425.014526,213.855759 423.225952,214.496460 422.558746,217.696228 
	C422.194153,219.444656 418.714569,220.543549 416.262939,221.869995 
M411.002472,119.698059 
	C411.002472,117.640930 411.002472,115.583794 411.002472,113.325127 
	C401.414368,115.870148 395.751343,126.458748 397.065918,135.363510 
	C398.324982,143.891830 402.663727,148.173935 411.002289,148.430939 
	C411.002289,139.166260 411.002289,129.907913 411.002472,119.698059 
M433.590149,192.835327 
	C438.672333,182.056335 436.254089,167.711853 423.416809,165.565506 
	C423.416809,177.265381 423.416809,188.911163 423.416809,200.879517 
	C428.547485,200.310623 430.882843,196.900940 433.590149,192.835327 
z"/>
<path fill="#FBB645" opacity="1.000000" stroke="none" 
	d="
M411.002380,120.173813 
	C411.002289,129.907913 411.002289,139.166260 411.002289,148.430939 
	C402.663727,148.173935 398.324982,143.891830 397.065918,135.363510 
	C395.751343,126.458748 401.414368,115.870148 411.002472,113.325127 
	C411.002472,115.583794 411.002472,117.640930 411.002380,120.173813 
z"/>
<path fill="#FBB545" opacity="1.000000" stroke="none" 
	d="
M433.408081,193.168488 
	C430.882843,196.900940 428.547485,200.310623 423.416809,200.879517 
	C423.416809,188.911163 423.416809,177.265381 423.416809,165.565506 
	C436.254089,167.711853 438.672333,182.056335 433.408081,193.168488 
z"/>
</svg>