<svg version="1.1" id="Layer_1" xmlns="http://www.w3.org/2000/svg" xmlns:xlink="http://www.w3.org/1999/xlink" x="0px" y="0px"
	 width="100%" viewBox="0 0 512 512" enable-background="new 0 0 512 512" xml:space="preserve">
<path fill="#F7F7F7" opacity="1.000000" stroke="none" 
	d="
M173.000000,513.000000 
	C115.694923,513.000000 58.389843,513.000000 1.042382,513.000000 
	C1.042382,342.445709 1.042382,171.891388 1.042382,1.000000 
	C68.687187,1.000000 136.374939,1.000000 204.355621,1.299969 
	C204.013245,2.134520 203.251419,2.573674 202.763916,3.219789 
	C200.337936,6.435055 200.123520,9.676387 203.169540,12.609133 
	C206.209930,15.536404 209.607758,15.367770 212.532623,12.642612 
	C215.553055,9.828427 215.449936,6.498248 212.841263,3.286903 
	C212.224213,2.527284 211.613586,1.762444 211.000000,1.000004 
	C311.619507,1.000000 412.239014,1.000000 512.929260,1.000000 
	C512.929260,171.666656 512.929260,342.333313 512.929260,513.000000 
	C473.233551,513.000000 433.585419,513.000000 393.629242,512.696899 
	C393.987183,511.663544 394.747864,510.998352 395.302948,510.191681 
	C397.809113,506.549530 397.045746,502.679443 393.424225,500.361023 
	C390.022034,498.183014 386.245361,499.103821 383.991730,502.682678 
	C381.435089,506.742523 383.843384,509.850006 386.000000,513.000000 
	C370.979095,513.000000 355.958221,513.000000 340.582581,512.656921 
	C347.154785,510.194763 351.519287,505.040588 351.960052,498.458862 
	C352.374298,492.273590 348.953186,485.974731 343.144012,483.480591 
	C340.499420,482.345154 337.365021,481.969055 334.443207,481.927673 
	C322.655853,481.760681 310.864777,481.858459 298.860718,481.858459 
	C298.860718,462.441620 298.860718,443.513977 298.860718,424.094208 
	C300.813202,424.094208 302.602783,424.094269 304.392334,424.094269 
	C346.223633,424.094208 388.055115,424.141632 429.886047,424.019043 
	C433.980591,424.007050 438.262939,423.533417 442.130585,422.270813 
	C455.896179,417.777130 463.519440,406.015503 463.525085,389.738617 
	C463.555603,301.909515 463.544220,214.080444 463.531464,126.251358 
	C463.531158,124.088272 463.436096,121.916916 463.234711,119.763489 
	C461.911072,105.610298 451.566376,94.006111 437.430847,91.959465 
	C430.070465,90.893768 422.490692,91.188217 415.009857,91.183838 
	C411.916840,91.182030 410.090057,90.589569 408.462524,87.512131 
	C403.568756,78.258774 398.183350,69.261223 392.857483,60.241970 
	C388.962097,53.645184 383.478241,51.775913 376.273102,54.459087 
	C371.139313,56.370918 366.017944,58.334148 360.987274,60.498207 
	C357.986755,61.788956 355.699036,61.633228 352.804108,59.673824 
	C347.049622,55.778965 340.963837,52.305157 334.747742,49.190746 
	C331.842621,47.735214 330.472626,45.999695 330.062317,42.912445 
	C329.251770,36.813892 328.442169,30.696857 327.183350,24.681385 
	C325.912048,18.606199 321.571411,15.072985 315.554260,15.001959 
	C304.223083,14.868208 292.888031,14.861336 281.557007,15.000584 
	C275.519409,15.074780 271.219269,18.726326 269.904175,24.670494 
	C269.078705,28.401531 268.248627,32.195087 268.066925,35.991528 
	C267.708221,43.487347 265.783752,49.600109 257.393463,51.462029 
	C256.454926,51.670303 255.613861,52.339359 254.741302,52.819603 
	C249.493195,55.708023 244.361099,60.638611 238.972778,60.935135 
	C233.379593,61.242928 227.552750,57.033695 221.804688,54.861839 
	C213.279099,51.640526 208.348755,53.324718 203.810608,61.090317 
	C198.025955,70.988937 192.322815,80.935188 186.444946,91.102364 
	C184.783524,91.102364 182.958420,91.102310 181.133316,91.102379 
	C148.968201,91.103508 116.803062,91.076996 84.637993,91.115692 
	C63.843086,91.140709 50.520718,104.274002 50.504345,125.096283 
	C50.434765,213.591949 50.425571,302.087738 50.504528,390.583405 
	C50.522877,411.147675 63.818203,424.082825 84.449242,424.089874 
	C126.113899,424.104126 167.778549,424.094543 209.443207,424.094788 
	C211.193863,424.094788 212.944519,424.094757 214.554886,424.094757 
	C214.554886,443.737549 214.554886,462.650146 214.554886,481.872070 
	C201.918396,481.872070 189.609207,481.777985 177.302399,481.907806 
	C170.068207,481.984100 164.310287,486.756195 162.464203,493.753571 
	C160.809891,500.024078 163.639465,506.891113 169.399658,510.609680 
	C170.609818,511.390900 171.800415,512.202393 173.000000,513.000000 
M475.009766,457.884583 
	C472.123718,455.706665 469.237671,453.528778 466.351654,451.350891 
	C465.991180,451.738525 465.630707,452.126160 465.270203,452.513794 
	C464.911591,450.918335 464.478668,449.335327 464.209290,447.724945 
	C463.587311,444.006378 461.211487,441.994446 457.684387,442.252716 
	C454.268799,442.502808 451.804199,444.480835 451.883728,448.424561 
	C451.949524,451.685760 450.598816,453.196045 447.102783,453.128632 
	C443.143860,453.052216 441.151398,455.415955 440.900360,459.363983 
	C440.648193,463.330383 442.985565,465.700470 446.362122,465.716461 
	C450.742157,465.737213 451.123566,468.102386 452.130035,471.375549 
	C452.802490,473.562347 455.244385,476.013214 457.427765,476.736938 
	C460.665741,477.810242 463.036560,475.447632 464.053223,472.249756 
	C464.643372,470.393250 464.928772,468.439850 465.398987,466.314667 
	C470.406830,465.972137 475.576904,465.754303 475.009766,457.884583 
M138.736008,31.655380 
	C137.514969,29.355461 136.293915,27.055542 134.582947,23.832821 
	C131.699600,33.285732 125.733742,38.728840 117.144714,41.990898 
	C126.045815,44.678261 131.482208,50.500011 134.401108,58.938160 
	C137.204285,54.960556 139.121216,51.213531 141.989563,48.456284 
	C144.917999,45.641293 148.780731,43.798252 151.304230,42.140713 
	C147.432907,39.026440 143.251724,35.662891 138.736008,31.655380 
M105.279129,449.596344 
	C104.646042,449.482819 103.664391,449.050201 103.432297,449.303772 
	C100.087372,452.957886 96.843224,456.704254 94.025581,459.914948 
	C97.080360,462.965393 101.040253,466.919678 104.207428,470.082367 
	C107.740387,466.676422 111.741585,462.819061 114.819588,459.851715 
	C112.043488,456.927185 108.826157,453.537811 105.279129,449.596344 
z"/>
<path fill="#06070A" opacity="1.000000" stroke="none" 
	d="
M173.468658,513.000000 
	C171.800415,512.202393 170.609818,511.390900 169.399658,510.609680 
	C163.639465,506.891113 160.809891,500.024078 162.464203,493.753571 
	C164.310287,486.756195 170.068207,481.984100 177.302399,481.907806 
	C189.609207,481.777985 201.918396,481.872070 214.554886,481.872070 
	C214.554886,462.650146 214.554886,443.737549 214.554886,424.094757 
	C212.944519,424.094757 211.193863,424.094788 209.443207,424.094788 
	C167.778549,424.094543 126.113899,424.104126 84.449242,424.089874 
	C63.818203,424.082825 50.522877,411.147675 50.504528,390.583405 
	C50.425571,302.087738 50.434765,213.591949 50.504345,125.096283 
	C50.520718,104.274002 63.843086,91.140709 84.637993,91.115692 
	C116.803062,91.076996 148.968201,91.103508 181.133316,91.102379 
	C182.958420,91.102310 184.783524,91.102364 186.444946,91.102364 
	C192.322815,80.935188 198.025955,70.988937 203.810608,61.090317 
	C208.348755,53.324718 213.279099,51.640526 221.804688,54.861839 
	C227.552750,57.033695 233.379593,61.242928 238.972778,60.935135 
	C244.361099,60.638611 249.493195,55.708023 254.741302,52.819603 
	C255.613861,52.339359 256.454926,51.670303 257.393463,51.462029 
	C265.783752,49.600109 267.708221,43.487347 268.066925,35.991528 
	C268.248627,32.195087 269.078705,28.401531 269.904175,24.670494 
	C271.219269,18.726326 275.519409,15.074780 281.557007,15.000584 
	C292.888031,14.861336 304.223083,14.868208 315.554260,15.001959 
	C321.571411,15.072985 325.912048,18.606199 327.183350,24.681385 
	C328.442169,30.696857 329.251770,36.813892 330.062317,42.912445 
	C330.472626,45.999695 331.842621,47.735214 334.747742,49.190746 
	C340.963837,52.305157 347.049622,55.778965 352.804108,59.673824 
	C355.699036,61.633228 357.986755,61.788956 360.987274,60.498207 
	C366.017944,58.334148 371.139313,56.370918 376.273102,54.459087 
	C383.478241,51.775913 388.962097,53.645184 392.857483,60.241970 
	C398.183350,69.261223 403.568756,78.258774 408.462524,87.512131 
	C410.090057,90.589569 411.916840,91.182030 415.009857,91.183838 
	C422.490692,91.188217 430.070465,90.893768 437.430847,91.959465 
	C451.566376,94.006111 461.911072,105.610298 463.234711,119.763489 
	C463.436096,121.916916 463.531158,124.088272 463.531464,126.251358 
	C463.544220,214.080444 463.555603,301.909515 463.525085,389.738617 
	C463.519440,406.015503 455.896179,417.777130 442.130585,422.270813 
	C438.262939,423.533417 433.980591,424.007050 429.886047,424.019043 
	C388.055115,424.141632 346.223633,424.094208 304.392334,424.094269 
	C302.602783,424.094269 300.813202,424.094208 298.860718,424.094208 
	C298.860718,443.513977 298.860718,462.441620 298.860718,481.858459 
	C310.864777,481.858459 322.655853,481.760681 334.443207,481.927673 
	C337.365021,481.969055 340.499420,482.345154 343.144012,483.480591 
	C348.953186,485.974731 352.374298,492.273590 351.960052,498.458862 
	C351.519287,505.040588 347.154785,510.194763 340.113922,512.656921 
	C284.645782,513.000000 229.291550,513.000000 173.468658,513.000000 
M323.881958,247.413635 
	C321.186829,248.577652 318.516846,250.673935 315.792328,250.747330 
	C302.705139,251.099777 289.603241,250.905685 275.396820,250.905685 
	C276.377136,252.690903 277.020630,254.764587 278.376587,256.131439 
	C280.709381,258.482880 283.497223,260.380341 286.074371,262.492371 
	C292.374084,267.655151 293.122467,271.821716 289.010864,279.011169 
	C285.871094,284.501251 282.693451,289.969727 279.525024,295.443390 
	C274.962616,303.325195 271.276855,304.589355 262.602203,301.255432 
	C260.739777,300.539642 258.766632,300.016663 257.045441,299.047852 
	C253.128586,296.843170 250.199020,298.224030 246.233429,299.940125 
	C236.160721,304.299225 231.416824,311.076385 231.016144,322.013672 
	C230.807159,327.718048 226.554993,330.691162 220.723465,330.828857 
	C212.894684,331.013702 205.054886,331.017609 197.226257,330.830231 
	C191.435196,330.691650 188.033936,327.640045 186.795822,321.974213 
	C186.334702,319.864075 185.864975,317.713043 185.796722,315.567993 
	C185.605713,309.565735 182.409775,306.637878 177.421387,303.164001 
	C169.233887,297.462250 162.347092,297.370300 153.898819,301.715302 
	C147.528427,304.991638 142.949493,302.910553 139.210251,296.693604 
	C136.894547,292.843414 134.718216,288.909546 132.472931,285.016907 
	C123.536171,269.523438 123.463097,269.173767 137.480331,258.173676 
	C141.045731,255.375717 141.491394,252.428497 142.005219,248.209198 
	C143.339310,237.254395 139.819916,229.698273 130.286163,224.077850 
	C125.850029,221.462616 125.249725,216.254883 127.756462,211.599823 
	C131.700073,204.276459 135.856735,197.057831 140.191727,189.958847 
	C142.946075,185.448349 147.291748,184.094162 152.319214,185.739349 
	C155.476486,186.772507 158.750046,187.696579 161.620697,189.298203 
	C165.400238,191.406921 167.942474,189.790054 171.508865,188.298813 
	C181.781479,184.003433 186.857758,177.156601 187.126892,165.907913 
	C187.190308,163.257111 190.625885,160.240967 193.158508,158.195694 
	C197.370865,154.793915 202.173721,152.132385 206.566956,148.937790 
	C207.431351,148.309235 207.957123,146.684891 207.975754,145.509277 
	C208.098267,137.780716 208.038940,130.049271 208.038940,122.334488 
	C165.472763,122.334488 123.706619,122.334488 81.658051,122.334488 
	C81.658051,212.658569 81.658051,302.690002 81.658051,392.860931 
	C198.764206,392.860931 315.523743,392.860931 432.688202,392.860931 
	C432.688202,390.768951 432.688232,388.961609 432.688171,387.154266 
	C432.685211,303.989380 432.690704,220.824509 432.658447,137.659653 
	C432.656494,132.692368 434.250427,125.596489 431.692230,123.316216 
	C428.733948,120.679375 421.998230,122.138855 416.899384,122.076141 
	C407.799530,121.964195 398.697357,122.044632 389.141418,122.044632 
	C389.141418,129.815140 388.960968,136.961914 389.256866,144.088913 
	C389.340210,146.096588 390.314941,148.596069 391.754761,149.918503 
	C395.914825,153.739578 400.560730,157.026382 404.940948,160.614380 
	C411.457275,165.952087 412.512451,171.306595 408.375824,178.635818 
	C403.304565,187.620941 398.152954,196.562149 392.920532,205.454376 
	C389.040039,212.049118 383.535461,213.977600 376.341064,211.341568 
	C370.724976,209.283798 365.237152,206.850937 359.551239,205.023880 
	C357.850494,204.477417 355.385468,204.879440 353.768066,205.760315 
	C347.939423,208.934616 342.551270,212.996216 336.549988,215.748505 
	C332.224426,217.732269 330.467072,220.148132 329.736481,224.844101 
	C328.579926,232.278229 326.229004,239.526550 323.881958,247.413635 
M385.160675,198.794388 
	C389.748169,190.881622 394.189941,182.878983 398.989838,175.097229 
	C401.118103,171.646790 400.561829,169.574493 397.369202,167.272873 
	C392.648041,163.869293 388.211700,160.067657 383.690033,156.391281 
	C380.217346,153.567795 378.837128,149.909210 378.936310,145.407883 
	C379.118958,137.117676 379.154541,128.817032 378.949493,120.528229 
	C378.828003,115.617622 380.459473,111.846161 384.336548,108.854599 
	C389.080963,105.193840 393.647003,101.301720 398.396942,97.648506 
	C400.675903,95.895767 400.976837,94.232864 399.491943,91.728516 
	C394.488037,83.289421 389.584198,74.788147 384.813629,66.215179 
	C383.264709,63.431736 381.488068,63.043285 378.708923,64.207611 
	C373.192383,66.518806 367.576355,68.591461 362.018677,70.805954 
	C357.273987,72.696480 353.080719,71.794594 348.801300,69.084541 
	C342.224304,64.919487 335.487610,60.968071 328.592712,57.357533 
	C324.253052,55.085056 321.477142,52.072426 320.747711,47.207954 
	C319.859711,41.286278 318.766449,35.390827 318.056061,29.448881 
	C317.667877,26.202379 316.456726,24.838211 313.003326,24.909519 
	C303.512756,25.105486 294.009125,25.179064 284.523773,24.882097 
	C280.466339,24.755070 279.405884,26.522207 278.976135,30.049356 
	C278.232391,36.154148 277.540802,42.328896 275.955688,48.240570 
	C275.170898,51.167385 273.008606,54.460056 270.496704,56.056068 
	C261.559998,61.734249 252.247284,66.830788 242.963287,71.941093 
	C241.584839,72.699852 239.362122,72.957489 237.928940,72.407455 
	C231.316605,69.869736 224.816406,67.029716 218.337097,64.160126 
	C215.502930,62.904922 213.763443,63.568428 212.256104,66.270859 
	C207.556961,74.695770 202.807495,83.098053 197.823257,91.355621 
	C196.018448,94.345680 196.686203,96.076157 199.249969,98.002884 
	C203.772842,101.401932 208.067505,105.102936 212.547379,108.561394 
	C216.726471,111.787674 218.510559,115.879356 218.073395,121.168686 
	C217.635483,126.467331 217.216568,131.806320 217.394104,137.107361 
	C217.622406,143.924835 219.982559,150.940857 213.382095,156.820831 
	C229.408249,157.661087 229.947266,157.752167 232.401489,172.906311 
	C233.312515,178.531647 235.813660,181.143860 240.265732,184.541534 
	C248.830261,191.077682 256.289856,190.302261 265.042419,185.927307 
	C270.442047,183.228302 275.096008,185.150131 278.266418,190.353622 
	C282.411072,197.156067 286.393188,204.065872 290.201904,211.061951 
	C293.072479,216.334732 292.029053,220.903778 287.421997,224.818726 
	C285.141052,226.757004 282.077637,228.124283 280.565094,230.509033 
	C279.298157,232.506577 279.269897,235.692688 279.697113,238.180084 
	C279.890656,239.306839 282.498596,240.755402 284.042511,240.793549 
	C293.697784,241.032150 303.363770,240.805756 313.022156,240.970642 
	C316.486237,241.029785 317.651154,239.538818 318.041260,236.326492 
	C318.762695,230.385620 319.873688,224.493042 320.754761,218.570267 
	C321.480469,213.691986 324.287842,210.668198 328.591431,208.390427 
	C335.472046,204.748718 342.241150,200.859314 348.823029,196.703445 
	C353.114777,193.993576 357.318542,193.153320 362.046692,195.019653 
	C367.610321,197.215775 373.217194,199.305878 378.743286,201.591919 
	C381.532532,202.745773 383.562317,202.408752 385.160675,198.794388 
M73.206467,116.915749 
	C76.085014,112.692497 80.328552,111.987190 85.052887,111.995232 
	C121.213829,112.056755 157.374908,112.030647 193.535950,112.031769 
	C195.458206,112.031830 197.380463,112.031776 200.709396,112.031776 
	C196.529633,108.661232 193.612152,106.003357 190.376694,103.815704 
	C188.481644,102.534370 186.083344,101.256203 183.905273,101.245651 
	C150.744553,101.084953 117.582756,101.103867 84.421295,101.148018 
	C69.324478,101.168121 60.611282,109.935135 60.606922,125.125275 
	C60.581619,213.278244 60.577950,301.431213 60.606224,389.584198 
	C60.611450,405.876801 68.939415,414.063263 85.280815,414.063873 
	C180.099426,414.067474 274.918060,414.065948 369.736664,414.065552 
	C390.400116,414.065460 411.063812,414.122742 431.726898,414.035095 
	C441.544281,413.993469 449.867401,408.018921 452.364471,398.950317 
	C453.317291,395.490021 453.371124,391.707214 453.373260,388.071106 
	C453.424377,301.251282 453.414062,214.431427 453.404755,127.611580 
	C453.404510,125.280792 453.421570,122.937927 453.207214,120.621361 
	C452.342041,111.270775 445.728058,103.184250 436.474792,102.017937 
	C427.936218,100.941696 419.207184,101.365784 410.561005,101.176323 
	C409.946564,101.162865 409.183838,101.372749 408.726685,101.758934 
	C404.989227,104.916084 401.308014,108.139832 396.817505,112.029587 
	C408.299561,112.029587 418.737976,112.008888 429.176239,112.035667 
	C438.778137,112.060295 442.756256,116.066376 442.756958,125.790787 
	C442.763245,213.777023 442.757050,301.763275 442.740570,389.749512 
	C442.738800,399.278961 438.906982,403.163208 429.492035,403.164093 
	C314.509888,403.175018 199.527756,403.175049 84.545609,403.165070 
	C75.108078,403.164246 71.258675,399.305573 71.257225,389.790405 
	C71.243843,301.804077 71.237778,213.817703 71.320610,125.831444 
	C71.323196,123.088303 72.310493,120.346085 73.206467,116.915749 
M146.333847,263.803284 
	C143.121567,266.390656 139.909286,268.978027 136.429901,271.780548 
	C140.647888,279.062653 144.685883,286.033966 148.757248,293.062958 
	C153.720642,291.158844 158.086548,288.841980 162.729309,287.921448 
	C165.994598,287.274048 169.968506,287.763947 173.036545,289.099792 
	C178.322128,291.401245 183.401749,294.409485 188.067886,297.807587 
	C190.656128,299.692474 192.950134,302.696472 194.079865,305.686127 
	C195.460007,309.338531 195.217422,313.574036 196.228790,317.411865 
	C196.590225,318.783386 198.519180,320.656769 199.806641,320.716919 
	C206.775101,321.042358 213.766754,320.871216 221.538101,320.871216 
	C222.289490,309.136261 223.236084,297.326477 237.522812,293.911041 
	C247.691879,283.199219 258.514587,287.743500 269.143951,293.335052 
	C273.497711,285.773926 277.459167,278.894165 281.879883,271.216797 
	C270.912781,265.256317 265.686523,257.633331 265.526947,243.909775 
	C265.365143,229.994080 271.567902,222.887451 281.503876,216.575470 
	C278.165222,210.780670 274.889099,205.932724 272.487823,200.684479 
	C270.209259,195.704422 267.486511,194.952393 262.971405,197.648895 
	C260.874603,198.901154 258.327606,199.380432 256.027802,200.316025 
	C251.645905,202.098602 247.769608,201.453186 243.859055,198.715012 
	C240.073349,196.064255 236.078140,193.556061 231.853943,191.726364 
	C226.135956,189.249619 223.518021,185.236572 222.942963,179.152237 
	C221.853073,167.620316 221.696335,167.605377 210.218460,167.650711 
	C205.907089,167.667725 200.322983,166.275757 197.651657,168.425125 
	C195.096756,170.480850 195.571747,176.301407 194.712097,180.466583 
	C194.644852,180.792358 194.520935,181.109238 194.480469,181.437302 
	C193.894974,186.183136 191.222351,189.087387 186.923187,191.135269 
	C182.445343,193.268295 178.125153,195.831390 174.025085,198.629959 
	C170.069168,201.330139 166.177704,201.867004 161.793930,200.096283 
	C157.526596,198.372589 153.202271,196.789993 148.716949,195.074295 
	C144.514435,202.351410 140.542648,209.228973 136.426376,216.356750 
	C140.203995,219.396866 143.629883,222.282364 147.193680,224.986084 
	C150.813873,227.732605 152.395706,231.172668 152.137115,235.768600 
	C151.847885,240.908768 151.703293,246.100769 152.099487,251.223526 
	C152.496780,256.360626 151.171005,260.393707 146.333847,263.803284 
M288.604675,441.503235 
	C288.604675,435.760712 288.604675,430.018188 288.604675,424.354279 
	C283.331818,424.354279 278.897552,424.354279 274.046814,424.354279 
	C274.046814,431.575531 274.139099,438.536591 274.021576,445.494110 
	C273.897400,452.845490 270.395050,458.198547 263.730103,461.253479 
	C252.162384,466.555695 239.677231,458.332092 239.262146,445.092163 
	C239.045532,438.182922 239.223953,431.261322 239.223953,424.374146 
	C234.071579,424.374146 229.660355,424.374146 225.160400,424.374146 
	C225.160400,443.575500 225.160400,462.486542 225.160400,481.606750 
	C246.293976,481.606750 267.180298,481.606750 288.604553,481.606750 
	C288.604553,468.404175 288.604553,455.453186 288.604675,441.503235 
M207.500031,491.892700 
	C197.672897,491.894653 187.845734,491.888947 178.018616,491.902618 
	C174.424011,491.907623 172.223846,493.832489 172.153488,497.308258 
	C172.082687,500.806732 174.301575,502.728851 177.826248,502.964020 
	C178.821381,503.030396 179.824234,502.984222 180.823547,502.984253 
	C231.624741,502.984772 282.425934,502.985443 333.227142,502.981049 
	C334.558167,502.980927 336.332764,503.456177 337.130920,502.789062 
	C338.981781,501.242035 341.605286,499.110229 341.575165,497.253448 
	C341.545959,495.456543 338.793701,493.410309 336.833954,492.058716 
	C335.811676,491.353668 333.920410,491.896545 332.421631,491.896423 
	C291.114441,491.893555 249.807236,491.893341 207.500031,491.892700 
M249.224365,427.785919 
	C249.235687,433.616913 249.076508,439.454895 249.313843,445.276672 
	C249.494019,449.696228 252.625076,452.922028 256.466309,452.812012 
	C260.633362,452.692627 263.691559,450.472626 263.895905,446.220917 
	C264.244629,438.965393 263.992035,431.681000 263.992035,424.083435 
	C259.568909,424.083435 255.591415,423.922638 251.646362,424.208984 
	C250.780197,424.271851 250.029434,425.924896 249.224365,427.785919 
z"/>
<path fill="#F2CA5C" opacity="1.000000" stroke="none" 
	d="
M386.437500,513.000000 
	C383.843384,509.850006 381.435089,506.742523 383.991730,502.682678 
	C386.245361,499.103821 390.022034,498.183014 393.424225,500.361023 
	C397.045746,502.679443 397.809113,506.549530 395.302948,510.191681 
	C394.747864,510.998352 393.987183,511.663544 393.160583,512.696899 
	C390.958344,513.000000 388.916656,513.000000 386.437500,513.000000 
z"/>
<path fill="#F36F86" opacity="1.000000" stroke="none" 
	d="
M210.571533,1.000004 
	C211.613586,1.762444 212.224213,2.527284 212.841263,3.286903 
	C215.449936,6.498248 215.553055,9.828427 212.532623,12.642612 
	C209.607758,15.367770 206.209930,15.536404 203.169540,12.609133 
	C200.123520,9.676387 200.337936,6.435055 202.763916,3.219789 
	C203.251419,2.573674 204.013245,2.134520 204.824280,1.299969 
	C206.714355,1.000000 208.428711,1.000000 210.571533,1.000004 
z"/>
<path fill="#76D5F5" opacity="1.000000" stroke="none" 
	d="
M475.049072,458.290161 
	C475.576904,465.754303 470.406830,465.972137 465.398987,466.314667 
	C464.928772,468.439850 464.643372,470.393250 464.053223,472.249756 
	C463.036560,475.447632 460.665741,477.810242 457.427765,476.736938 
	C455.244385,476.013214 452.802490,473.562347 452.130035,471.375549 
	C451.123566,468.102386 450.742157,465.737213 446.362122,465.716461 
	C442.985565,465.700470 440.648193,463.330383 440.900360,459.363983 
	C441.151398,455.415955 443.143860,453.052216 447.102783,453.128632 
	C450.598816,453.196045 451.949524,451.685760 451.883728,448.424561 
	C451.804199,444.480835 454.268799,442.502808 457.684387,442.252716 
	C461.211487,441.994446 463.587311,444.006378 464.209290,447.724945 
	C464.478668,449.335327 464.911591,450.918335 465.270203,452.513794 
	C465.630707,452.126160 465.991180,451.738525 466.351654,451.350891 
	C469.237671,453.528778 472.123718,455.706665 475.049072,458.290161 
z"/>
<path fill="#F2C95A" opacity="1.000000" stroke="none" 
	d="
M138.903259,31.977364 
	C143.251724,35.662891 147.432907,39.026440 151.304230,42.140713 
	C148.780731,43.798252 144.917999,45.641293 141.989563,48.456284 
	C139.121216,51.213531 137.204285,54.960556 134.401108,58.938160 
	C131.482208,50.500011 126.045815,44.678261 117.144714,41.990898 
	C125.733742,38.728840 131.699600,33.285732 134.582947,23.832821 
	C136.293915,27.055542 137.514969,29.355461 138.903259,31.977364 
z"/>
<path fill="#90CF58" opacity="1.000000" stroke="none" 
	d="
M105.443985,449.872406 
	C108.826157,453.537811 112.043488,456.927185 114.819588,459.851715 
	C111.741585,462.819061 107.740387,466.676422 104.207428,470.082367 
	C101.040253,466.919678 97.080360,462.965393 94.025581,459.914948 
	C96.843224,456.704254 100.087372,452.957886 103.432297,449.303772 
	C103.664391,449.050201 104.646042,449.482819 105.443985,449.872406 
z"/>
<path fill="#6FD5F7" opacity="1.000000" stroke="none" 
	d="
M324.132690,247.133560 
	C326.229004,239.526550 328.579926,232.278229 329.736481,224.844101 
	C330.467072,220.148132 332.224426,217.732269 336.549988,215.748505 
	C342.551270,212.996216 347.939423,208.934616 353.768066,205.760315 
	C355.385468,204.879440 357.850494,204.477417 359.551239,205.023880 
	C365.237152,206.850937 370.724976,209.283798 376.341064,211.341568 
	C383.535461,213.977600 389.040039,212.049118 392.920532,205.454376 
	C398.152954,196.562149 403.304565,187.620941 408.375824,178.635818 
	C412.512451,171.306595 411.457275,165.952087 404.940948,160.614380 
	C400.560730,157.026382 395.914825,153.739578 391.754761,149.918503 
	C390.314941,148.596069 389.340210,146.096588 389.256866,144.088913 
	C388.960968,136.961914 389.141418,129.815140 389.141418,122.044632 
	C398.697357,122.044632 407.799530,121.964195 416.899384,122.076141 
	C421.998230,122.138855 428.733948,120.679375 431.692230,123.316216 
	C434.250427,125.596489 432.656494,132.692368 432.658447,137.659653 
	C432.690704,220.824509 432.685211,303.989380 432.688171,387.154266 
	C432.688232,388.961609 432.688202,390.768951 432.688202,392.860931 
	C315.523743,392.860931 198.764206,392.860931 81.658051,392.860931 
	C81.658051,302.690002 81.658051,212.658569 81.658051,122.334488 
	C123.706619,122.334488 165.472763,122.334488 208.038940,122.334488 
	C208.038940,130.049271 208.098267,137.780716 207.975754,145.509277 
	C207.957123,146.684891 207.431351,148.309235 206.566956,148.937790 
	C202.173721,152.132385 197.370865,154.793915 193.158508,158.195694 
	C190.625885,160.240967 187.190308,163.257111 187.126892,165.907913 
	C186.857758,177.156601 181.781479,184.003433 171.508865,188.298813 
	C167.942474,189.790054 165.400238,191.406921 161.620697,189.298203 
	C158.750046,187.696579 155.476486,186.772507 152.319214,185.739349 
	C147.291748,184.094162 142.946075,185.448349 140.191727,189.958847 
	C135.856735,197.057831 131.700073,204.276459 127.756462,211.599823 
	C125.249725,216.254883 125.850029,221.462616 130.286163,224.077850 
	C139.819916,229.698273 143.339310,237.254395 142.005219,248.209198 
	C141.491394,252.428497 141.045731,255.375717 137.480331,258.173676 
	C123.463097,269.173767 123.536171,269.523438 132.472931,285.016907 
	C134.718216,288.909546 136.894547,292.843414 139.210251,296.693604 
	C142.949493,302.910553 147.528427,304.991638 153.898819,301.715302 
	C162.347092,297.370300 169.233887,297.462250 177.421387,303.164001 
	C182.409775,306.637878 185.605713,309.565735 185.796722,315.567993 
	C185.864975,317.713043 186.334702,319.864075 186.795822,321.974213 
	C188.033936,327.640045 191.435196,330.691650 197.226257,330.830231 
	C205.054886,331.017609 212.894684,331.013702 220.723465,330.828857 
	C226.554993,330.691162 230.807159,327.718048 231.016144,322.013672 
	C231.416824,311.076385 236.160721,304.299225 246.233429,299.940125 
	C250.199020,298.224030 253.128586,296.843170 257.045441,299.047852 
	C258.766632,300.016663 260.739777,300.539642 262.602203,301.255432 
	C271.276855,304.589355 274.962616,303.325195 279.525024,295.443390 
	C282.693451,289.969727 285.871094,284.501251 289.010864,279.011169 
	C293.122467,271.821716 292.374084,267.655151 286.074371,262.492371 
	C283.497223,260.380341 280.709381,258.482880 278.376587,256.131439 
	C277.020630,254.764587 276.377136,252.690903 275.396820,250.905685 
	C289.603241,250.905685 302.705139,251.099777 315.792328,250.747330 
	C318.516846,250.673935 321.186829,248.577652 324.132690,247.133560 
z"/>
<path fill="#F3C74D" opacity="1.000000" stroke="none" 
	d="
M384.991455,199.141006 
	C383.562317,202.408752 381.532532,202.745773 378.743286,201.591919 
	C373.217194,199.305878 367.610321,197.215775 362.046692,195.019653 
	C357.318542,193.153320 353.114777,193.993576 348.823029,196.703445 
	C342.241150,200.859314 335.472046,204.748718 328.591431,208.390427 
	C324.287842,210.668198 321.480469,213.691986 320.754761,218.570267 
	C319.873688,224.493042 318.762695,230.385620 318.041260,236.326492 
	C317.651154,239.538818 316.486237,241.029785 313.022156,240.970642 
	C303.363770,240.805756 293.697784,241.032150 284.042511,240.793549 
	C282.498596,240.755402 279.890656,239.306839 279.697113,238.180084 
	C279.269897,235.692688 279.298157,232.506577 280.565094,230.509033 
	C282.077637,228.124283 285.141052,226.757004 287.421997,224.818726 
	C292.029053,220.903778 293.072479,216.334732 290.201904,211.061951 
	C286.393188,204.065872 282.411072,197.156067 278.266418,190.353622 
	C275.096008,185.150131 270.442047,183.228302 265.042419,185.927307 
	C256.289856,190.302261 248.830261,191.077682 240.265732,184.541534 
	C235.813660,181.143860 233.312515,178.531647 232.401489,172.906311 
	C229.947266,157.752167 229.408249,157.661087 213.382095,156.820831 
	C219.982559,150.940857 217.622406,143.924835 217.394104,137.107361 
	C217.216568,131.806320 217.635483,126.467331 218.073395,121.168686 
	C218.510559,115.879356 216.726471,111.787674 212.547379,108.561394 
	C208.067505,105.102936 203.772842,101.401932 199.249969,98.002884 
	C196.686203,96.076157 196.018448,94.345680 197.823257,91.355621 
	C202.807495,83.098053 207.556961,74.695770 212.256104,66.270859 
	C213.763443,63.568428 215.502930,62.904922 218.337097,64.160126 
	C224.816406,67.029716 231.316605,69.869736 237.928940,72.407455 
	C239.362122,72.957489 241.584839,72.699852 242.963287,71.941093 
	C252.247284,66.830788 261.559998,61.734249 270.496704,56.056068 
	C273.008606,54.460056 275.170898,51.167385 275.955688,48.240570 
	C277.540802,42.328896 278.232391,36.154148 278.976135,30.049356 
	C279.405884,26.522207 280.466339,24.755070 284.523773,24.882097 
	C294.009125,25.179064 303.512756,25.105486 313.003326,24.909519 
	C316.456726,24.838211 317.667877,26.202379 318.056061,29.448881 
	C318.766449,35.390827 319.859711,41.286278 320.747711,47.207954 
	C321.477142,52.072426 324.253052,55.085056 328.592712,57.357533 
	C335.487610,60.968071 342.224304,64.919487 348.801300,69.084541 
	C353.080719,71.794594 357.273987,72.696480 362.018677,70.805954 
	C367.576355,68.591461 373.192383,66.518806 378.708923,64.207611 
	C381.488068,63.043285 383.264709,63.431736 384.813629,66.215179 
	C389.584198,74.788147 394.488037,83.289421 399.491943,91.728516 
	C400.976837,94.232864 400.675903,95.895767 398.396942,97.648506 
	C393.647003,101.301720 389.080963,105.193840 384.336548,108.854599 
	C380.459473,111.846161 378.828003,115.617622 378.949493,120.528229 
	C379.154541,128.817032 379.118958,137.117676 378.936310,145.407883 
	C378.837128,149.909210 380.217346,153.567795 383.690033,156.391281 
	C388.211700,160.067657 392.648041,163.869293 397.369202,167.272873 
	C400.561829,169.574493 401.118103,171.646790 398.989838,175.097229 
	C394.189941,182.878983 389.748169,190.881622 384.991455,199.141006 
M284.718475,88.310661 
	C284.718475,88.310661 284.657898,88.446289 284.616150,87.803772 
	C284.070770,87.541290 283.525421,87.278809 283.000000,86.999390 
	C283.000000,86.999390 282.985413,87.019745 282.857880,86.264664 
	C281.311798,85.513725 279.785248,84.165657 278.216278,84.114311 
	C271.082916,83.880852 263.924683,83.778259 256.805267,84.170639 
	C254.926804,84.274178 253.154907,86.311180 251.282135,87.323967 
	C251.282135,87.323967 251.412811,87.388947 250.818970,87.383965 
	C250.637238,87.707512 250.455505,88.031052 250.229294,88.214401 
	C250.229294,88.214401 250.370544,88.255432 249.749237,88.358147 
	C249.493759,88.899353 249.238297,89.440552 249.000000,90.000000 
	C249.000000,90.000000 248.981369,89.984108 248.232697,90.133759 
	C247.491379,91.851982 246.116455,93.565956 246.104889,95.289078 
	C245.958237,117.159897 245.921387,139.032959 246.157440,160.902206 
	C246.178101,162.817825 248.317169,164.710571 249.314774,166.728088 
	C249.314774,166.728088 249.406723,166.556671 249.361206,167.250839 
	C250.059219,167.687073 250.757248,168.123306 251.296158,168.655594 
	C251.296158,168.655594 251.390717,168.495575 251.421432,169.177429 
	C252.231186,169.474915 253.040924,169.772385 253.925980,170.022293 
	C253.925980,170.022293 253.963394,170.103119 254.399185,170.558578 
	C254.804871,170.644516 255.210556,170.730453 255.843628,170.746170 
	C255.843628,170.746170 255.995636,170.929276 256.564514,171.547043 
	C257.204346,171.693985 257.844086,171.968872 258.484070,171.969467 
	C285.779083,171.994507 313.074188,172.009171 340.369110,171.952530 
	C341.583160,171.950012 342.795807,171.271133 344.207428,170.719086 
	C344.207428,170.719086 344.448120,170.848724 345.044006,170.813293 
	C345.361908,170.590866 345.679840,170.368439 346.526672,169.701416 
	C351.297394,166.862427 353.090302,162.620483 353.038696,157.143967 
	C352.899048,142.328842 353.020477,127.511452 352.979218,112.695129 
	C352.953674,103.525536 348.377960,99.037750 339.065552,99.016884 
	C324.915131,98.985184 310.759583,98.800819 296.616760,99.131775 
	C291.832764,99.243729 289.034393,97.797256 287.912933,92.472557 
	C287.098206,91.465843 286.283478,90.459137 285.556091,89.006294 
	C285.556091,89.006294 285.497009,89.456062 285.572998,88.857544 
	C285.241943,88.693031 284.910889,88.528519 284.718475,88.310661 
z"/>
<path fill="#6EAAE8" opacity="1.000000" stroke="none" 
	d="
M73.022591,117.259598 
	C72.310493,120.346085 71.323196,123.088303 71.320610,125.831444 
	C71.237778,213.817703 71.243843,301.804077 71.257225,389.790405 
	C71.258675,399.305573 75.108078,403.164246 84.545609,403.165070 
	C199.527756,403.175049 314.509888,403.175018 429.492035,403.164093 
	C438.906982,403.163208 442.738800,399.278961 442.740570,389.749512 
	C442.757050,301.763275 442.763245,213.777023 442.756958,125.790787 
	C442.756256,116.066376 438.778137,112.060295 429.176239,112.035667 
	C418.737976,112.008888 408.299561,112.029587 396.817505,112.029587 
	C401.308014,108.139832 404.989227,104.916084 408.726685,101.758934 
	C409.183838,101.372749 409.946564,101.162865 410.561005,101.176323 
	C419.207184,101.365784 427.936218,100.941696 436.474792,102.017937 
	C445.728058,103.184250 452.342041,111.270775 453.207214,120.621361 
	C453.421570,122.937927 453.404510,125.280792 453.404755,127.611580 
	C453.414062,214.431427 453.424377,301.251282 453.373260,388.071106 
	C453.371124,391.707214 453.317291,395.490021 452.364471,398.950317 
	C449.867401,408.018921 441.544281,413.993469 431.726898,414.035095 
	C411.063812,414.122742 390.400116,414.065460 369.736664,414.065552 
	C274.918060,414.065948 180.099426,414.067474 85.280815,414.063873 
	C68.939415,414.063263 60.611450,405.876801 60.606224,389.584198 
	C60.577950,301.431213 60.581619,213.278244 60.606922,125.125275 
	C60.611282,109.935135 69.324478,101.168121 84.421295,101.148018 
	C117.582756,101.103867 150.744553,101.084953 183.905273,101.245651 
	C186.083344,101.256203 188.481644,102.534370 190.376694,103.815704 
	C193.612152,106.003357 196.529633,108.661232 200.709396,112.031776 
	C197.380463,112.031776 195.458206,112.031830 193.535950,112.031769 
	C157.374908,112.030647 121.213829,112.056755 85.052887,111.995232 
	C80.328552,111.987190 76.085014,112.692497 73.022591,117.259598 
z"/>
<path fill="#F8A166" opacity="1.000000" stroke="none" 
	d="
M146.604782,263.567139 
	C151.171005,260.393707 152.496780,256.360626 152.099487,251.223526 
	C151.703293,246.100769 151.847885,240.908768 152.137115,235.768600 
	C152.395706,231.172668 150.813873,227.732605 147.193680,224.986084 
	C143.629883,222.282364 140.203995,219.396866 136.426376,216.356750 
	C140.542648,209.228973 144.514435,202.351410 148.716949,195.074295 
	C153.202271,196.789993 157.526596,198.372589 161.793930,200.096283 
	C166.177704,201.867004 170.069168,201.330139 174.025085,198.629959 
	C178.125153,195.831390 182.445343,193.268295 186.923187,191.135269 
	C191.222351,189.087387 193.894974,186.183136 194.480469,181.437302 
	C194.520935,181.109238 194.644852,180.792358 194.712097,180.466583 
	C195.571747,176.301407 195.096756,170.480850 197.651657,168.425125 
	C200.322983,166.275757 205.907089,167.667725 210.218460,167.650711 
	C221.696335,167.605377 221.853073,167.620316 222.942963,179.152237 
	C223.518021,185.236572 226.135956,189.249619 231.853943,191.726364 
	C236.078140,193.556061 240.073349,196.064255 243.859055,198.715012 
	C247.769608,201.453186 251.645905,202.098602 256.027802,200.316025 
	C258.327606,199.380432 260.874603,198.901154 262.971405,197.648895 
	C267.486511,194.952393 270.209259,195.704422 272.487823,200.684479 
	C274.889099,205.932724 278.165222,210.780670 281.503876,216.575470 
	C271.567902,222.887451 265.365143,229.994080 265.526947,243.909775 
	C265.686523,257.633331 270.912781,265.256317 281.879883,271.216797 
	C277.459167,278.894165 273.497711,285.773926 269.143951,293.335052 
	C258.514587,287.743500 247.691879,283.199219 237.522812,293.911041 
	C223.236084,297.326477 222.289490,309.136261 221.538101,320.871216 
	C213.766754,320.871216 206.775101,321.042358 199.806641,320.716919 
	C198.519180,320.656769 196.590225,318.783386 196.228790,317.411865 
	C195.217422,313.574036 195.460007,309.338531 194.079865,305.686127 
	C192.950134,302.696472 190.656128,299.692474 188.067886,297.807587 
	C183.401749,294.409485 178.322128,291.401245 173.036545,289.099792 
	C169.968506,287.763947 165.994598,287.274048 162.729309,287.921448 
	C158.086548,288.841980 153.720642,291.158844 148.757248,293.062958 
	C144.685883,286.033966 140.647888,279.062653 136.429901,271.780548 
	C139.909286,268.978027 143.121567,266.390656 146.604782,263.567139 
M175.150040,221.844406 
	C175.152054,237.333374 175.067307,252.823029 175.188690,268.311066 
	C175.261322,277.578827 180.672607,282.875366 189.814026,282.976227 
	C194.976410,283.033173 200.164566,283.289093 205.292007,282.863708 
	C207.697678,282.664124 210.534821,281.637939 212.238556,280.006775 
	C221.619278,271.025635 230.814301,261.841736 239.805695,252.470856 
	C241.451187,250.755920 242.603409,247.890518 242.709641,245.499573 
	C243.064178,237.521149 242.956955,229.514786 242.806747,221.523270 
	C242.633240,212.292328 237.231476,207.052551 228.023041,207.017990 
	C215.532120,206.971115 203.040878,206.991516 190.549789,207.010818 
	C180.994095,207.025589 176.376984,211.225723 175.150040,221.844406 
z"/>
<path fill="#C4D3E1" opacity="1.000000" stroke="none" 
	d="
M288.604614,442.002747 
	C288.604553,455.453186 288.604553,468.404175 288.604553,481.606750 
	C267.180298,481.606750 246.293976,481.606750 225.160400,481.606750 
	C225.160400,462.486542 225.160400,443.575500 225.160400,424.374146 
	C229.660355,424.374146 234.071579,424.374146 239.223953,424.374146 
	C239.223953,431.261322 239.045532,438.182922 239.262146,445.092163 
	C239.677231,458.332092 252.162384,466.555695 263.730103,461.253479 
	C270.395050,458.198547 273.897400,452.845490 274.021576,445.494110 
	C274.139099,438.536591 274.046814,431.575531 274.046814,424.354279 
	C278.897552,424.354279 283.331818,424.354279 288.604675,424.354279 
	C288.604675,430.018188 288.604675,435.760712 288.604614,442.002747 
z"/>
<path fill="#EDF3FB" opacity="1.000000" stroke="none" 
	d="
M208.000031,491.892700 
	C249.807236,491.893341 291.114441,491.893555 332.421631,491.896423 
	C333.920410,491.896545 335.811676,491.353668 336.833954,492.058716 
	C338.793701,493.410309 341.545959,495.456543 341.575165,497.253448 
	C341.605286,499.110229 338.981781,501.242035 337.130920,502.789062 
	C336.332764,503.456177 334.558167,502.980927 333.227142,502.981049 
	C282.425934,502.985443 231.624741,502.984772 180.823547,502.984253 
	C179.824234,502.984222 178.821381,503.030396 177.826248,502.964020 
	C174.301575,502.728851 172.082687,500.806732 172.153488,497.308258 
	C172.223846,493.832489 174.424011,491.907623 178.018616,491.902618 
	C187.845734,491.888947 197.672897,491.894653 208.000031,491.892700 
z"/>
<path fill="#F0F0F0" opacity="1.000000" stroke="none" 
	d="
M249.224945,427.315796 
	C250.029434,425.924896 250.780197,424.271851 251.646362,424.208984 
	C255.591415,423.922638 259.568909,424.083435 263.992035,424.083435 
	C263.992035,431.681000 264.244629,438.965393 263.895905,446.220917 
	C263.691559,450.472626 260.633362,452.692627 256.466309,452.812012 
	C252.625076,452.922028 249.494019,449.696228 249.313843,445.276672 
	C249.076508,439.454895 249.235687,433.616913 249.224945,427.315796 
z"/>
<path fill="#030101" opacity="1.000000" stroke="none" 
	d="
M344.448120,170.848724 
	C344.448120,170.848724 344.207428,170.719086 343.639771,170.786270 
	C314.046600,170.878723 285.021118,170.903992 255.995636,170.929276 
	C255.995636,170.929276 255.843628,170.746170 255.525543,170.531952 
	C254.792770,170.246185 254.378082,170.174652 253.963394,170.103119 
	C253.963394,170.103119 253.925980,170.022293 253.682953,169.833374 
	C252.756851,169.261490 252.073792,168.878540 251.390717,168.495575 
	C251.390717,168.495575 251.296158,168.655594 251.223511,168.360657 
	C250.569489,167.562698 249.988098,167.059677 249.406723,166.556671 
	C249.406723,166.556671 249.314774,166.728088 249.243256,166.323761 
	C248.456284,162.910294 247.151306,159.906982 247.121399,156.891037 
	C246.931976,137.791656 246.934921,118.688683 247.112198,99.589096 
	C247.141953,96.381927 248.329056,93.185501 248.981384,89.984108 
	C248.981369,89.984108 249.000000,90.000000 249.246628,89.856323 
	C249.785690,89.226906 250.078110,88.741165 250.370544,88.255432 
	C250.370544,88.255432 250.229294,88.214401 250.503113,88.206131 
	C250.988892,87.928215 251.200851,87.658585 251.412811,87.388947 
	C251.412811,87.388947 251.282135,87.323967 251.665604,87.253754 
	C262.342377,83.575020 272.657227,84.036430 282.985413,87.019745 
	C282.985413,87.019745 283.000000,86.999390 283.117859,87.263168 
	C283.709808,87.833397 284.183838,88.139847 284.657898,88.446289 
	C284.657898,88.446289 284.718475,88.310661 284.731689,88.571495 
	C284.922821,89.128021 285.173523,89.335930 285.497009,89.456062 
	C285.497009,89.456062 285.556091,89.006294 285.637634,89.526360 
	C286.448822,91.097748 287.178406,92.149071 287.908020,93.200394 
	C289.034393,97.797256 291.832764,99.243729 296.616760,99.131775 
	C310.759583,98.800819 324.915131,98.985184 339.065552,99.016884 
	C348.377960,99.037750 352.953674,103.525536 352.979218,112.695129 
	C353.020477,127.511452 352.899048,142.328842 353.038696,157.143967 
	C353.090302,162.620483 351.297394,166.862427 345.957336,169.916687 
	C345.074677,170.370865 344.761414,170.609787 344.448120,170.848724 
M257.002106,144.495148 
	C257.002258,148.655060 257.140930,152.821152 256.956238,156.972839 
	C256.822083,159.988602 257.886078,161.059189 260.962067,161.048691 
	C286.919861,160.960037 312.878265,160.949097 338.835876,161.062088 
	C342.205109,161.076736 343.080597,159.836365 343.053528,156.675720 
	C342.931122,142.366577 342.890442,128.054352 343.077179,113.746597 
	C343.125824,110.018967 341.963562,108.879288 338.244415,108.924576 
	C323.270844,109.106911 308.293365,108.943954 293.318115,109.033714 
	C288.639008,109.061752 283.984283,107.888634 282.348358,103.615089 
	C279.016083,94.910057 272.637115,93.999092 264.911224,94.980919 
	C263.764984,95.126587 262.567780,95.128075 261.422699,94.978188 
	C257.814392,94.505867 256.904755,96.171127 256.939026,99.568695 
	C257.086700,114.210236 257.002136,128.854126 257.002106,144.495148 
z"/>
<path fill="#E5C468" opacity="1.000000" stroke="none" 
	d="
M256.280090,171.238159 
	C285.021118,170.903992 314.046600,170.878723 343.540588,170.880371 
	C342.795807,171.271133 341.583160,171.950012 340.369110,171.952530 
	C313.074188,172.009171 285.779083,171.994507 258.484070,171.969467 
	C257.844086,171.968872 257.204346,171.693985 256.280090,171.238159 
z"/>
<path fill="#E0C166" opacity="1.000000" stroke="none" 
	d="
M248.607040,90.058929 
	C248.329056,93.185501 247.141953,96.381927 247.112198,99.589096 
	C246.934921,118.688683 246.931976,137.791656 247.121399,156.891037 
	C247.151306,159.906982 248.456284,162.910294 249.322021,166.266693 
	C248.317169,164.710571 246.178101,162.817825 246.157440,160.902206 
	C245.921387,139.032959 245.958237,117.159897 246.104889,95.289078 
	C246.116455,93.565956 247.491379,91.851982 248.607040,90.058929 
z"/>
<path fill="#E0C166" opacity="1.000000" stroke="none" 
	d="
M282.921631,86.642204 
	C272.657227,84.036430 262.342377,83.575020 251.691574,87.321945 
	C253.154907,86.311180 254.926804,84.274178 256.805267,84.170639 
	C263.924683,83.778259 271.082916,83.880852 278.216278,84.114311 
	C279.785248,84.165657 281.311798,85.513725 282.921631,86.642204 
z"/>
<path fill="#E0C166" opacity="1.000000" stroke="none" 
	d="
M287.910461,92.836472 
	C287.178406,92.149071 286.448822,91.097748 285.593994,89.749428 
	C286.283478,90.459137 287.098206,91.465843 287.910461,92.836472 
z"/>
<path fill="#E0C166" opacity="1.000000" stroke="none" 
	d="
M251.406067,168.836502 
	C252.073792,168.878540 252.756851,169.261490 253.645294,169.857147 
	C253.040924,169.772385 252.231186,169.474915 251.406067,168.836502 
z"/>
<path fill="#E0C166" opacity="1.000000" stroke="none" 
	d="
M249.383972,166.903748 
	C249.988098,167.059677 250.569489,167.562698 251.303070,168.312622 
	C250.757248,168.123306 250.059219,167.687073 249.383972,166.903748 
z"/>
<path fill="#E0C166" opacity="1.000000" stroke="none" 
	d="
M250.059875,88.306786 
	C250.078110,88.741165 249.785690,89.226906 249.238037,89.847198 
	C249.238297,89.440552 249.493759,88.899353 250.059875,88.306786 
z"/>
<path fill="#E0C166" opacity="1.000000" stroke="none" 
	d="
M284.637024,88.125031 
	C284.183838,88.139847 283.709808,87.833397 283.107910,87.271637 
	C283.525421,87.278809 284.070770,87.541290 284.637024,88.125031 
z"/>
<path fill="#E5C468" opacity="1.000000" stroke="none" 
	d="
M344.746063,170.831009 
	C344.761414,170.609787 345.074677,170.370865 345.692871,170.138977 
	C345.679840,170.368439 345.361908,170.590866 344.746063,170.831009 
z"/>
<path fill="#E0C166" opacity="1.000000" stroke="none" 
	d="
M254.181290,170.330841 
	C254.378082,170.174652 254.792770,170.246185 255.411850,170.567047 
	C255.210556,170.730453 254.804871,170.644516 254.181290,170.330841 
z"/>
<path fill="#E0C166" opacity="1.000000" stroke="none" 
	d="
M285.535004,89.156799 
	C285.173523,89.335930 284.922821,89.128021 284.662354,88.598167 
	C284.910889,88.528519 285.241943,88.693031 285.535004,89.156799 
z"/>
<path fill="#E0C166" opacity="1.000000" stroke="none" 
	d="
M251.115891,87.386459 
	C251.200851,87.658585 250.988892,87.928215 250.525360,88.276230 
	C250.455505,88.031052 250.637238,87.707512 251.115891,87.386459 
z"/>
<path fill="#070403" opacity="1.000000" stroke="none" 
	d="
M175.156036,221.392303 
	C176.376984,211.225723 180.994095,207.025589 190.549789,207.010818 
	C203.040878,206.991516 215.532120,206.971115 228.023041,207.017990 
	C237.231476,207.052551 242.633240,212.292328 242.806747,221.523270 
	C242.956955,229.514786 243.064178,237.521149 242.709641,245.499573 
	C242.603409,247.890518 241.451187,250.755920 239.805695,252.470856 
	C230.814301,261.841736 221.619278,271.025635 212.238556,280.006775 
	C210.534821,281.637939 207.697678,282.664124 205.292007,282.863708 
	C200.164566,283.289093 194.976410,283.033173 189.814026,282.976227 
	C180.672607,282.875366 175.261322,277.578827 175.188690,268.311066 
	C175.067307,252.823029 175.152054,237.333374 175.156036,221.392303 
M232.820587,228.565750 
	C232.818008,226.234421 232.822464,223.903076 232.811096,221.571793 
	C232.796432,218.563583 231.475327,216.968033 228.267944,216.981323 
	C215.445862,217.034424 202.623322,217.035400 189.801270,216.979904 
	C186.638412,216.966217 185.186279,218.453445 185.184372,221.499420 
	C185.174591,237.152603 185.067184,252.807892 185.359833,268.455627 
	C185.388550,269.992188 187.751617,272.560974 189.301712,272.785889 
	C193.487961,273.393250 197.820282,272.993774 202.271332,272.993774 
	C202.271332,267.420074 202.179565,262.433594 202.290863,257.451599 
	C202.506699,247.791214 207.556580,242.828659 217.249924,242.694626 
	C222.350830,242.624084 227.453506,242.682175 232.338257,242.682175 
	C232.620468,241.658920 232.781174,241.343887 232.783310,241.027771 
	C232.809280,237.198105 232.811859,233.368256 232.820587,228.565750 
M217.020401,252.631378 
	C211.882538,253.600266 210.926697,256.483368 212.906509,264.797455 
	C216.802841,260.979523 220.752716,257.109131 225.332016,252.621979 
	C222.370804,252.621979 220.111603,252.621979 217.020401,252.631378 
z"/>
<path fill="#DAE6F2" opacity="1.000000" stroke="none" 
	d="
M257.002106,143.996155 
	C257.002136,128.854126 257.086700,114.210236 256.939026,99.568695 
	C256.904755,96.171127 257.814392,94.505867 261.422699,94.978188 
	C262.567780,95.128075 263.764984,95.126587 264.911224,94.980919 
	C272.637115,93.999092 279.016083,94.910057 282.348358,103.615089 
	C283.984283,107.888634 288.639008,109.061752 293.318115,109.033714 
	C308.293365,108.943954 323.270844,109.106911 338.244415,108.924576 
	C341.963562,108.879288 343.125824,110.018967 343.077179,113.746597 
	C342.890442,128.054352 342.931122,142.366577 343.053528,156.675720 
	C343.080597,159.836365 342.205109,161.076736 338.835876,161.062088 
	C312.878265,160.949097 286.919861,160.960037 260.962067,161.048691 
	C257.886078,161.059189 256.822083,159.988602 256.956238,156.972839 
	C257.140930,152.821152 257.002258,148.655060 257.002106,143.996155 
z"/>
<path fill="#D7E2EE" opacity="1.000000" stroke="none" 
	d="
M232.820557,229.052109 
	C232.811859,233.368256 232.809280,237.198105 232.783310,241.027771 
	C232.781174,241.343887 232.620468,241.658920 232.338257,242.682175 
	C227.453506,242.682175 222.350830,242.624084 217.249924,242.694626 
	C207.556580,242.828659 202.506699,247.791214 202.290863,257.451599 
	C202.179565,262.433594 202.271332,267.420074 202.271332,272.993774 
	C197.820282,272.993774 193.487961,273.393250 189.301712,272.785889 
	C187.751617,272.560974 185.388550,269.992188 185.359833,268.455627 
	C185.067184,252.807892 185.174591,237.152603 185.184372,221.499420 
	C185.186279,218.453445 186.638412,216.966217 189.801270,216.979904 
	C202.623322,217.035400 215.445862,217.034424 228.267944,216.981323 
	C231.475327,216.968033 232.796432,218.563583 232.811096,221.571793 
	C232.822464,223.903076 232.818008,226.234421 232.820557,229.052109 
z"/>
<path fill="#CBD3DC" opacity="1.000000" stroke="none" 
	d="
M217.436401,252.626678 
	C220.111603,252.621979 222.370804,252.621979 225.332016,252.621979 
	C220.752716,257.109131 216.802841,260.979523 212.906509,264.797455 
	C210.926697,256.483368 211.882538,253.600266 217.436401,252.626678 
z"/>
</svg>