<svg version="1.1" id="Layer_1" xmlns="http://www.w3.org/2000/svg" xmlns:xlink="http://www.w3.org/1999/xlink" x="0px" y="0px"
	 width="100%" viewBox="0 0 128 128" enable-background="new 0 0 128 128" xml:space="preserve">
<path fill="#F2F5F6" opacity="1.000000" stroke="none" 
	d="
M1.000000,95.000000 
	C1.000000,91.638710 1.000000,88.277428 1.388339,84.533371 
	C3.950293,91.601501 3.530961,90.744896 13.454437,88.665451 
	C14.602706,88.424835 15.362396,86.329834 16.302242,85.094582 
	C15.891315,84.747681 15.480388,84.400780 15.069461,84.053879 
	C13.173890,84.309715 11.278319,84.565552 9.227552,84.842331 
	C15.611636,67.369324 26.487423,53.249027 39.050800,40.004894 
	C37.838528,38.913380 36.911678,38.078861 35.861252,37.133068 
	C23.644705,49.515907 13.679804,63.061989 7.047696,77.880135 
	C4.670913,77.534241 2.835456,77.267120 1.000000,77.000000 
	C1.000000,61.645771 1.000000,46.291542 1.427079,30.443146 
	C4.738747,30.166708 6.060928,29.466732 6.353008,25.953028 
	C6.696266,21.823652 7.809880,17.390717 9.884902,13.848269 
	C14.414536,6.115334 22.203035,5.237874 30.295038,5.979529 
	C34.399147,6.355682 36.027321,5.088464 34.000000,1.000000 
	C39.354931,1.000000 44.709858,1.000000 50.309662,1.312871 
	C38.702507,3.957189 38.496078,4.140531 41.557262,13.529307 
	C41.954449,14.747499 43.826359,15.484862 45.015167,16.444946 
	C45.368565,16.032568 45.721962,15.620191 46.075359,15.207812 
	C45.841003,13.325501 45.606647,11.443191 45.353146,9.407105 
	C62.858799,15.758941 76.976692,26.699921 90.206184,39.234173 
	C91.318687,38.051819 92.169411,37.147678 93.477547,35.757404 
	C85.480858,29.161152 77.831841,22.851694 70.191147,16.549093 
	C71.571121,15.597502 72.896660,14.683448 74.384590,13.657415 
	C73.593140,12.393772 72.951202,11.368845 72.076080,9.971605 
	C69.787445,11.595812 67.901665,12.934117 65.941284,14.325369 
	C61.271599,11.853593 56.288017,9.215662 52.553108,7.238683 
	C52.729229,4.779996 52.864616,2.889998 53.000000,1.000000 
	C68.020897,1.000000 83.041786,1.000000 98.425385,1.388269 
	C91.522064,3.632290 84.256042,5.488041 76.533554,7.460374 
	C77.598068,9.568952 78.157997,10.678044 78.396568,11.150591 
	C86.099121,9.524621 93.295334,7.413173 100.636261,6.585842 
	C113.749153,5.108003 122.799217,13.581192 122.982330,26.688108 
	C123.000916,28.018324 122.935822,29.349506 122.925613,30.680363 
	C122.900841,33.913574 122.904655,33.913605 127.119659,34.029755 
	C127.119659,30.564192 127.340767,27.088409 127.079079,23.649364 
	C126.222115,12.387496 119.063393,4.660336 107.928894,2.604309 
	C105.922272,2.233778 103.974785,1.542951 102.000000,1.000000 
	C110.945717,1.000000 119.891426,1.000000 129.000000,1.000000 
	C129.000000,16.020559 129.000000,31.041620 128.638062,46.423218 
	C124.512192,34.880486 127.271896,35.909836 114.446930,39.432949 
	C114.009445,39.553131 113.653976,39.971836 113.062325,40.391960 
	C113.504051,41.583664 113.933365,42.741867 114.338043,43.833626 
	C116.372246,43.478844 118.059410,43.184589 120.281654,42.797012 
	C114.246361,60.981186 103.319344,75.251427 90.915436,88.656433 
	C91.515182,89.401070 91.872902,89.957436 92.341606,90.394897 
	C92.790291,90.813667 93.354301,91.108879 93.979172,91.534340 
	C106.632149,78.793404 116.628815,64.531799 122.652184,49.323212 
	C125.463829,49.622982 127.231911,49.811493 129.000000,50.000000 
	C129.000000,65.354225 129.000000,80.708458 128.625702,96.428406 
	C126.401863,90.341301 124.552307,83.888474 122.740547,77.567505 
	C118.776199,77.576561 118.372520,79.036797 119.218170,81.986816 
	C120.946495,88.016068 122.888802,94.087509 123.628693,100.274826 
	C125.123764,112.777443 117.644051,122.072266 106.054443,122.931519 
	C102.750397,123.176483 99.416527,123.019379 95.749924,122.984665 
	C94.333092,121.608322 93.262657,120.293976 92.057549,118.637360 
	C91.413040,116.738365 90.903221,115.181633 90.274040,113.260445 
	C88.841217,113.721306 87.572624,114.129341 86.418327,114.500618 
	C86.802124,116.606384 87.106667,118.277328 87.504280,120.458939 
	C69.286186,114.474068 54.986847,103.565857 41.398060,90.943085 
	C40.370819,92.171112 39.501900,93.209877 38.679211,94.193367 
	C51.673088,106.642632 65.062019,117.655724 81.180420,122.700951 
	C80.689644,125.319847 80.344826,127.159927 80.000000,129.000000 
	C63.312439,129.000000 46.624878,129.000000 29.553562,128.635773 
	C29.265194,126.921227 29.360579,125.570908 29.455229,124.231026 
	C10.028540,122.849274 6.498188,118.579681 5.752479,96.013062 
	C4.214168,95.685150 2.607084,95.342575 1.000000,95.000000 
M83.660355,83.952385 
	C83.863312,83.658829 83.900291,83.345657 84.001801,82.099075 
	C83.929626,70.410385 83.857452,58.721703 83.756439,46.339691 
	C83.148697,45.557793 82.670433,44.609543 81.912979,44.020004 
	C75.152542,38.758278 56.597267,38.085323 49.559162,43.202408 
	C47.835220,44.455814 46.321259,47.213905 46.256016,49.327900 
	C45.927326,59.978527 45.902607,70.652397 46.285439,81.299606 
	C46.363518,83.471123 48.173874,86.785858 49.993073,87.491188 
	C60.792500,91.678276 71.684280,92.833351 82.554329,85.731613 
	C82.788109,85.229523 83.021881,84.727432 83.660355,83.952385 
M59.425812,118.218163 
	C56.649052,111.207016 53.906193,117.732925 50.616440,117.806633 
	C51.443977,119.456810 51.991718,120.549042 52.624008,121.809875 
	C54.887951,120.723328 56.938183,119.739349 59.425812,118.218163 
M10.716336,57.577740 
	C12.417361,61.861137 13.927068,58.702049 15.685925,57.691044 
	C14.522155,55.374981 13.493634,53.328087 12.327086,51.006496 
	C11.003793,51.581036 9.876254,52.070587 8.468823,52.681656 
	C9.159052,54.281025 9.736925,55.620049 10.716336,57.577740 
M22.991318,76.875107 
	C24.327591,76.469246 25.663862,76.063393 27.407925,75.533684 
	C25.447424,72.843712 24.006510,70.866653 22.428707,68.701775 
	C21.114870,69.668083 20.083107,70.426933 18.898935,71.297867 
	C20.210390,73.095695 21.372309,74.688530 22.991318,76.875107 
M73.420746,104.134705 
	C71.954422,106.148308 66.050880,106.754265 71.366425,111.148712 
	C73.405930,109.641014 75.380753,108.181129 78.057449,106.202393 
	C76.440239,105.230011 75.228157,104.501221 73.420746,104.134705 
M105.749184,57.585232 
	C106.611671,58.659386 107.474159,59.733540 108.475349,60.980427 
	C109.708801,59.898212 110.613327,59.104595 111.602798,58.236454 
	C109.973831,55.966530 108.568848,54.008713 107.123192,51.994225 
	C104.468155,53.252396 102.817703,54.469322 105.749184,57.585232 
M52.370605,24.296127 
	C55.245533,28.741261 57.005524,24.305309 58.855804,23.189463 
	C59.587635,22.748121 59.199970,20.450445 59.322037,18.997999 
	C58.807850,18.856052 58.293659,18.714106 57.779472,18.572159 
	C55.859184,20.258560 53.938900,21.944960 52.370605,24.296127 
M46.719944,30.181995 
	C42.170471,27.679569 41.992832,32.963776 39.436329,33.790737 
	C40.287403,35.237312 40.938553,36.344078 42.123051,38.357380 
	C44.328915,35.067535 45.751770,32.945477 46.719944,30.181995 
M3.584637,39.382156 
	C4.154284,41.188839 4.723930,42.995525 5.276165,44.746986 
	C11.952211,43.376526 7.463620,39.911804 7.643873,36.446716 
	C5.802920,37.418377 4.607999,38.049061 3.584637,39.382156 
M87.061806,98.590256 
	C88.033791,97.565376 89.005783,96.540497 90.155930,95.327766 
	C88.888351,94.325356 87.928215,93.566071 86.898842,92.752029 
	C84.965744,94.534233 83.295372,96.074219 81.503380,97.726334 
	C82.873154,100.324333 84.133087,101.905258 87.061806,98.590256 
M44.209641,123.591660 
	C43.311596,118.866234 40.346428,122.037888 38.491131,122.421135 
	C37.843155,122.554985 37.698597,125.125854 37.324139,126.583801 
	C37.797112,126.761269 38.270084,126.938736 38.743057,127.116203 
	C40.632393,126.206764 42.521729,125.297325 44.209641,123.591660 
M35.871101,89.184502 
	C39.056942,84.550262 33.197132,84.473343 32.485943,81.352142 
	C31.109304,82.582710 30.171103,83.421356 28.700756,84.735680 
	C31.083395,86.512932 33.188587,88.083237 35.871101,89.184502 
M95.066582,44.521202 
	C96.050529,45.813549 97.034477,47.105896 98.145370,48.564976 
	C99.641281,46.994606 100.492073,46.101467 101.679893,44.854527 
	C99.536888,43.106213 97.680336,41.591591 94.838783,39.273388 
	C94.754463,41.105579 94.687866,42.552799 95.066582,44.521202 
M115.894936,73.737335 
	C117.251717,73.438370 118.608505,73.139404 120.294029,72.767998 
	C118.958359,70.456543 118.009697,68.814819 117.132904,67.297470 
	C112.327538,68.449394 114.029831,70.831680 115.894936,73.737335 
z"/>
<path fill="#1C4266" opacity="1.000000" stroke="none" 
	d="
M52.666668,1.000000 
	C52.864616,2.889998 52.729229,4.779996 52.553108,7.238683 
	C56.288017,9.215662 61.271599,11.853593 65.941284,14.325369 
	C67.901665,12.934117 69.787445,11.595812 72.076080,9.971605 
	C72.951202,11.368845 73.593140,12.393772 74.384590,13.657415 
	C72.896660,14.683448 71.571121,15.597502 70.191147,16.549093 
	C77.831841,22.851694 85.480858,29.161152 93.477547,35.757404 
	C92.169411,37.147678 91.318687,38.051819 90.206184,39.234173 
	C76.976692,26.699921 62.858799,15.758941 45.353146,9.407105 
	C45.606647,11.443191 45.841003,13.325501 46.075359,15.207812 
	C45.721962,15.620191 45.368565,16.032568 45.015167,16.444946 
	C43.826359,15.484862 41.954449,14.747499 41.557262,13.529307 
	C38.496078,4.140531 38.702507,3.957189 50.777267,1.312871 
	C51.444447,1.000000 51.888889,1.000000 52.666668,1.000000 
z"/>
<path fill="#1E4367" opacity="1.000000" stroke="none" 
	d="
M1.000000,77.437500 
	C2.835456,77.267120 4.670913,77.534241 7.047696,77.880135 
	C13.679804,63.061989 23.644705,49.515907 35.861252,37.133068 
	C36.911678,38.078861 37.838528,38.913380 39.050800,40.004894 
	C26.487423,53.249027 15.611636,67.369324 9.227552,84.842331 
	C11.278319,84.565552 13.173890,84.309715 15.069461,84.053879 
	C15.480388,84.400780 15.891315,84.747681 16.302242,85.094582 
	C15.362396,86.329834 14.602706,88.424835 13.454437,88.665451 
	C3.530961,90.744896 3.950293,91.601501 1.388339,84.075302 
	C1.000000,81.958336 1.000000,79.916664 1.000000,77.437500 
z"/>
<path fill="#1B4165" opacity="1.000000" stroke="none" 
	d="
M80.375000,129.000000 
	C80.344826,127.159927 80.689644,125.319847 81.180420,122.700951 
	C65.062019,117.655724 51.673088,106.642632 38.679211,94.193367 
	C39.501900,93.209877 40.370819,92.171112 41.398060,90.943085 
	C54.986847,103.565857 69.286186,114.474068 87.504280,120.458939 
	C87.106667,118.277328 86.802124,116.606384 86.418327,114.500618 
	C87.572624,114.129341 88.841217,113.721306 90.274040,113.260445 
	C90.903221,115.181633 91.413040,116.738365 92.058899,119.024361 
	C94.124573,123.885841 92.879684,126.198616 88.331596,127.004875 
	C86.494247,127.330597 84.773705,128.315231 83.000000,129.000000 
	C82.250000,129.000000 81.500000,129.000000 80.375000,129.000000 
z"/>
<path fill="#1C4265" opacity="1.000000" stroke="none" 
	d="
M129.000000,49.625000 
	C127.231911,49.811493 125.463829,49.622982 122.652184,49.323212 
	C116.628815,64.531799 106.632149,78.793404 93.979172,91.534340 
	C93.354301,91.108879 92.790291,90.813667 92.341606,90.394897 
	C91.872902,89.957436 91.515182,89.401070 90.915436,88.656433 
	C103.319344,75.251427 114.246361,60.981186 120.281654,42.797012 
	C118.059410,43.184589 116.372246,43.478844 114.338043,43.833626 
	C113.933365,42.741867 113.504051,41.583664 113.062325,40.391960 
	C113.653976,39.971836 114.009445,39.553131 114.446930,39.432949 
	C127.271896,35.909836 124.512192,34.880486 128.638062,46.891876 
	C129.000000,47.750000 129.000000,48.500000 129.000000,49.625000 
z"/>
<path fill="#1D4265" opacity="1.000000" stroke="none" 
	d="
M96.096336,123.046654 
	C99.416527,123.019379 102.750397,123.176483 106.054443,122.931519 
	C117.644051,122.072266 125.123764,112.777443 123.628693,100.274826 
	C122.888802,94.087509 120.946495,88.016068 119.218170,81.986816 
	C118.372520,79.036797 118.776199,77.576561 122.740547,77.567505 
	C124.552307,83.888474 126.401863,90.341301 128.625702,96.897064 
	C129.000000,100.692909 129.000000,104.385818 128.622910,108.490143 
	C124.367920,120.062195 117.010681,126.857391 104.411011,127.581955 
	C101.299309,127.391922 98.588860,127.198418 95.847359,127.002701 
	C95.953026,125.323715 96.024681,124.185181 96.096336,123.046654 
z"/>
<path fill="#1C4165" opacity="1.000000" stroke="none" 
	d="
M101.625000,1.000000 
	C103.974785,1.542951 105.922272,2.233778 107.928894,2.604309 
	C119.063393,4.660336 126.222115,12.387496 127.079079,23.649364 
	C127.340767,27.088409 127.119659,30.564192 127.119659,34.029755 
	C122.904655,33.913605 122.900841,33.913574 122.925613,30.680363 
	C122.935822,29.349506 123.000916,28.018324 122.982330,26.688108 
	C122.799217,13.581192 113.749153,5.108003 100.636261,6.585842 
	C93.295334,7.413173 86.099121,9.524621 78.396568,11.150591 
	C78.157997,10.678044 77.598068,9.568952 76.533554,7.460374 
	C84.256042,5.488041 91.522064,3.632290 98.894043,1.388269 
	C99.750000,1.000000 100.500000,1.000000 101.625000,1.000000 
z"/>
<path fill="#1C4264" opacity="1.000000" stroke="none" 
	d="
M1.000000,95.466118 
	C2.607084,95.342575 4.214168,95.685150 5.752479,96.013062 
	C6.498188,118.579681 10.028540,122.849274 29.455229,124.231026 
	C29.360579,125.570908 29.265194,126.921227 29.084904,128.635773 
	C27.285643,129.000000 25.571283,129.000000 23.279366,128.643204 
	C14.674745,126.947273 7.818071,123.794746 3.928185,116.096519 
	C2.911665,114.084785 1.973923,112.033257 0.999999,110.000000 
	C1.000000,105.310745 1.000000,100.621490 1.000000,95.466118 
z"/>
<path fill="#1D4164" opacity="1.000000" stroke="none" 
	d="
M33.625000,1.000000 
	C36.027321,5.088464 34.399147,6.355682 30.295038,5.979529 
	C22.203035,5.237874 14.414536,6.115334 9.884902,13.848269 
	C7.809880,17.390717 6.696266,21.823652 6.353008,25.953028 
	C6.060928,29.466732 4.738747,30.166708 1.427079,29.974487 
	C1.000000,28.285643 1.000000,26.571283 1.360152,24.279629 
	C2.709991,17.579723 4.417620,11.623350 9.305645,7.521904 
	C12.468052,4.868389 16.408306,3.141898 20.000000,1.000000 
	C21.066669,1.000000 22.133339,1.000000 23.840778,1.295203 
	C26.654366,1.393604 28.827183,1.196802 31.000000,1.000000 
	C31.750000,1.000000 32.500000,1.000000 33.625000,1.000000 
z"/>
<path fill="#F0F3F6" opacity="1.000000" stroke="none" 
	d="
M104.812279,127.578484 
	C117.010681,126.857391 124.367920,120.062195 128.622910,108.950775 
	C129.000000,115.599632 129.000000,122.199272 129.000000,129.000000 
	C121.313629,129.000000 113.625504,129.000000 105.429909,128.643555 
	C104.885712,128.050903 104.848999,127.814690 104.812279,127.578484 
z"/>
<path fill="#EFF4F6" opacity="1.000000" stroke="none" 
	d="
M19.530624,1.000000 
	C16.408306,3.141898 12.468052,4.868389 9.305645,7.521904 
	C4.417620,11.623350 2.709991,17.579723 1.360152,23.851166 
	C1.000000,16.414389 1.000000,8.828775 1.000000,1.000000 
	C7.018249,1.000000 13.039749,1.000000 19.530624,1.000000 
z"/>
<path fill="#EEF3F7" opacity="1.000000" stroke="none" 
	d="
M0.999999,110.469376 
	C1.973923,112.033257 2.911665,114.084785 3.928185,116.096519 
	C7.818071,123.794746 14.674745,126.947273 22.850903,128.643204 
	C15.746112,129.000000 8.492223,129.000000 1.000000,129.000000 
	C1.000000,122.981667 1.000000,116.960205 0.999999,110.469376 
z"/>
<path fill="#DDE8EF" opacity="1.000000" stroke="none" 
	d="
M104.411011,127.581955 
	C104.848999,127.814690 104.885712,128.050903 104.961212,128.643555 
	C97.979050,129.000000 90.958107,129.000000 83.468582,129.000000 
	C84.773705,128.315231 86.494247,127.330597 88.331596,127.004875 
	C92.879684,126.198616 94.124573,123.885841 92.193581,119.366623 
	C93.262657,120.293976 94.333092,121.608322 95.749924,122.984665 
	C96.024681,124.185181 95.953026,125.323715 95.847359,127.002701 
	C98.588860,127.198418 101.299309,127.391922 104.411011,127.581955 
z"/>
<path fill="#436D92" opacity="1.000000" stroke="none" 
	d="
M30.562500,1.000000 
	C28.827183,1.196802 26.654366,1.393604 24.240774,1.295203 
	C26.041666,1.000000 28.083334,1.000000 30.562500,1.000000 
z"/>
<path fill="#0B4367" opacity="1.000000" stroke="none" 
	d="
M81.990311,85.766640 
	C71.684280,92.833351 60.792500,91.678276 49.993073,87.491188 
	C48.173874,86.785858 46.363518,83.471123 46.285439,81.299606 
	C45.902607,70.652397 45.927326,59.978527 46.256016,49.327900 
	C46.321259,47.213905 47.835220,44.455814 49.559162,43.202408 
	C56.597267,38.085323 75.152542,38.758278 81.912979,44.020004 
	C82.670433,44.609543 83.148697,45.557793 83.526482,47.016426 
	C83.166191,57.479641 83.035858,67.266113 82.519836,77.039307 
	C81.355560,77.050095 80.576973,77.074173 79.453674,77.079308 
	C78.418884,77.066269 77.728813,77.072166 76.812996,76.807899 
	C74.713730,77.241081 72.840195,77.944435 70.541275,78.746994 
	C68.076431,78.867805 66.036980,78.889420 63.907158,78.766701 
	C63.547482,78.700684 63.278172,78.778999 62.624413,78.885071 
	C60.491768,78.624084 58.743568,78.335350 56.937721,77.704056 
	C55.581680,77.247337 54.283287,77.133179 52.635300,77.047531 
	C51.681049,77.378601 51.076389,77.681168 50.172043,78.111633 
	C48.506344,80.649406 48.234104,82.748627 51.827721,83.929543 
	C56.165016,84.818161 60.141109,85.629700 64.324501,86.598038 
	C65.329933,86.611977 66.128059,86.469131 67.355637,86.231644 
	C71.728981,85.029221 75.672874,83.921448 79.952286,82.878487 
	C80.852814,83.268044 81.417839,83.592796 81.986328,84.225700 
	C81.989967,84.944778 81.990143,85.355713 81.990311,85.766640 
M68.115669,74.766869 
	C70.386818,74.329628 72.667946,73.938133 74.927002,73.445465 
	C79.400864,72.469765 80.897964,69.854401 79.711540,66.544907 
	C69.723366,66.544907 60.289902,66.544907 50.600231,66.544907 
	C49.949684,70.309090 51.446526,73.152809 55.946712,73.779572 
	C59.678619,74.299332 63.458214,74.476677 68.115669,74.766869 
M77.636528,54.240501 
	C68.969414,56.959526 60.287575,56.614140 51.520332,53.991512 
	C50.455654,57.217041 50.035145,60.061996 53.634560,61.295322 
	C61.427036,63.965385 69.320335,64.138870 77.038872,61.017822 
	C80.610268,59.573708 80.922096,57.032845 77.636528,54.240501 
M66.394539,44.030003 
	C60.992229,44.035244 55.594830,44.059158 50.751480,47.642323 
	C58.035431,53.319698 73.301598,53.138744 79.861595,46.663456 
	C75.146286,45.691944 71.225327,44.884094 66.394539,44.030003 
z"/>
<path fill="#1D4061" opacity="1.000000" stroke="none" 
	d="
M59.207115,118.486771 
	C56.938183,119.739349 54.887951,120.723328 52.624008,121.809875 
	C51.991718,120.549042 51.443977,119.456810 50.616440,117.806633 
	C53.906193,117.732925 56.649052,111.207016 59.207115,118.486771 
z"/>
<path fill="#274768" opacity="1.000000" stroke="none" 
	d="
M10.515568,57.268406 
	C9.736925,55.620049 9.159052,54.281025 8.468823,52.681656 
	C9.876254,52.070587 11.003793,51.581036 12.327086,51.006496 
	C13.493634,53.328087 14.522155,55.374981 15.685925,57.691044 
	C13.927068,58.702049 12.417361,61.861137 10.515568,57.268406 
z"/>
<path fill="#244665" opacity="1.000000" stroke="none" 
	d="
M22.762772,76.578232 
	C21.372309,74.688530 20.210390,73.095695 18.898935,71.297867 
	C20.083107,70.426933 21.114870,69.668083 22.428707,68.701775 
	C24.006510,70.866653 25.447424,72.843712 27.407925,75.533684 
	C25.663862,76.063393 24.327591,76.469246 22.762772,76.578232 
z"/>
<path fill="#224463" opacity="1.000000" stroke="none" 
	d="
M73.718414,103.953568 
	C75.228157,104.501221 76.440239,105.230011 78.057449,106.202393 
	C75.380753,108.181129 73.405930,109.641014 71.366425,111.148712 
	C66.050880,106.754265 71.954422,106.148308 73.718414,103.953568 
z"/>
<path fill="#204463" opacity="1.000000" stroke="none" 
	d="
M105.524155,57.310760 
	C102.817703,54.469322 104.468155,53.252396 107.123192,51.994225 
	C108.568848,54.008713 109.973831,55.966530 111.602798,58.236454 
	C110.613327,59.104595 109.708801,59.898212 108.475349,60.980427 
	C107.474159,59.733540 106.611671,58.659386 105.524155,57.310760 
z"/>
<path fill="#224464" opacity="1.000000" stroke="none" 
	d="
M52.194611,23.963745 
	C53.938900,21.944960 55.859184,20.258560 57.779472,18.572159 
	C58.293659,18.714106 58.807850,18.856052 59.322037,18.997999 
	C59.199970,20.450445 59.587635,22.748121 58.855804,23.189463 
	C57.005524,24.305309 55.245533,28.741261 52.194611,23.963745 
z"/>
<path fill="#1A3854" opacity="1.000000" stroke="none" 
	d="
M82.905525,77.052589 
	C83.035858,67.266113 83.166191,57.479641 83.540901,47.363091 
	C83.857452,58.721703 83.929626,70.410385 83.686165,82.564720 
	C83.370529,83.030365 82.971207,83.072380 82.968849,82.637817 
	C82.946167,80.486366 82.925842,78.769478 82.905525,77.052589 
z"/>
<path fill="#264465" opacity="1.000000" stroke="none" 
	d="
M46.947281,30.502708 
	C45.751770,32.945477 44.328915,35.067535 42.123051,38.357380 
	C40.938553,36.344078 40.287403,35.237312 39.436329,33.790737 
	C41.992832,32.963776 42.170471,27.679569 46.947281,30.502708 
z"/>
<path fill="#284966" opacity="1.000000" stroke="none" 
	d="
M3.498858,39.030949 
	C4.607999,38.049061 5.802920,37.418377 7.643873,36.446716 
	C7.463620,39.911804 11.952211,43.376526 5.276165,44.746986 
	C4.723930,42.995525 4.154284,41.188839 3.498858,39.030949 
z"/>
<path fill="#1E405E" opacity="1.000000" stroke="none" 
	d="
M86.797928,98.823212 
	C84.133087,101.905258 82.873154,100.324333 81.503380,97.726334 
	C83.295372,96.074219 84.965744,94.534233 86.898842,92.752029 
	C87.928215,93.566071 88.888351,94.325356 90.155930,95.327766 
	C89.005783,96.540497 88.033791,97.565376 86.797928,98.823212 
z"/>
<path fill="#2C4C68" opacity="1.000000" stroke="none" 
	d="
M44.310352,123.989777 
	C42.521729,125.297325 40.632393,126.206764 38.743057,127.116203 
	C38.270084,126.938736 37.797112,126.761269 37.324139,126.583801 
	C37.698597,125.125854 37.843155,122.554985 38.491131,122.421135 
	C40.346428,122.037888 43.311596,118.866234 44.310352,123.989777 
z"/>
<path fill="#224360" opacity="1.000000" stroke="none" 
	d="
M35.582443,89.419022 
	C33.188587,88.083237 31.083395,86.512932 28.700756,84.735680 
	C30.171103,83.421356 31.109304,82.582710 32.485943,81.352142 
	C33.197132,84.473343 39.056942,84.550262 35.582443,89.419022 
z"/>
<path fill="#1C3E5D" opacity="1.000000" stroke="none" 
	d="
M94.843918,44.260612 
	C94.687866,42.552799 94.754463,41.105579 94.838783,39.273388 
	C97.680336,41.591591 99.536888,43.106213 101.679893,44.854527 
	C100.492073,46.101467 99.641281,46.994606 98.145370,48.564976 
	C97.034477,47.105896 96.050529,45.813549 94.843918,44.260612 
z"/>
<path fill="#244260" opacity="1.000000" stroke="none" 
	d="
M115.651512,73.439911 
	C114.029831,70.831680 112.327538,68.449394 117.132904,67.297470 
	C118.009697,68.814819 118.958359,70.456543 120.294029,72.767998 
	C118.608505,73.139404 117.251717,73.438370 115.651512,73.439911 
z"/>
<path fill="#1A3854" opacity="1.000000" stroke="none" 
	d="
M82.272324,85.749130 
	C81.990143,85.355713 81.989967,84.944778 82.218262,84.225342 
	C82.446724,83.916840 82.907234,83.867851 82.988770,83.962654 
	C83.070312,84.057457 83.255661,84.225349 83.255661,84.225349 
	C83.021881,84.727432 82.788109,85.229523 82.272324,85.749130 
z"/>
<path fill="#0B4367" opacity="1.000000" stroke="none" 
	d="
M82.971207,83.072380 
	C82.971207,83.072380 83.370529,83.030365 83.570908,83.021614 
	C83.900291,83.345657 83.863312,83.658829 83.458008,84.088867 
	C83.255661,84.225349 83.070312,84.057457 83.010452,83.764801 
	C82.950584,83.472137 82.971207,83.072380 82.971207,83.072380 
z"/>
<path fill="#0DDDCA" opacity="1.000000" stroke="none" 
	d="
M67.666176,74.786301 
	C63.458214,74.476677 59.678619,74.299332 55.946712,73.779572 
	C51.446526,73.152809 49.949684,70.309090 50.600231,66.544907 
	C60.289902,66.544907 69.723366,66.544907 79.711540,66.544907 
	C80.897964,69.854401 79.400864,72.469765 74.927002,73.445465 
	C72.667946,73.938133 70.386818,74.329628 67.666176,74.786301 
z"/>
<path fill="#0AA5E0" opacity="1.000000" stroke="none" 
	d="
M64.117203,86.441246 
	C60.141109,85.629700 56.165016,84.818161 51.686779,83.523544 
	C50.946999,81.354897 50.709366,79.669312 50.471729,77.983727 
	C51.076389,77.681168 51.681049,77.378601 52.898834,77.282288 
	C54.673096,77.674568 55.834232,77.860596 56.995369,78.046616 
	C58.743568,78.335350 60.491768,78.624084 62.869129,78.943619 
	C63.664700,78.953293 63.831112,78.932159 63.997524,78.911034 
	C66.036980,78.889420 68.076431,78.867805 70.899292,78.796219 
	C73.468048,78.190193 75.253395,77.634132 77.038734,77.078064 
	C77.728813,77.072166 78.418884,77.066269 79.469147,77.488373 
	C79.758469,79.548813 79.687622,81.181252 79.616776,82.813683 
	C75.672874,83.921448 71.728981,85.029221 67.005630,86.157478 
	C65.523186,86.265724 64.820190,86.353485 64.117203,86.441246 
z"/>
<path fill="#0BA4E1" opacity="1.000000" stroke="none" 
	d="
M78.031433,54.191109 
	C80.922096,57.032845 80.610268,59.573708 77.038872,61.017822 
	C69.320335,64.138870 61.427036,63.965385 53.634560,61.295322 
	C50.035145,60.061996 50.455654,57.217041 51.520332,53.991512 
	C60.287575,56.614140 68.969414,56.959526 78.031433,54.191109 
z"/>
<path fill="#0EDCCA" opacity="1.000000" stroke="none" 
	d="
M66.849449,44.053123 
	C71.225327,44.884094 75.146286,45.691944 79.861595,46.663456 
	C73.301598,53.138744 58.035431,53.319698 50.751480,47.642323 
	C55.594830,44.059158 60.992229,44.035244 66.849449,44.053123 
z"/>
<path fill="#024779" opacity="1.000000" stroke="none" 
	d="
M79.952286,82.878487 
	C79.687622,81.181252 79.758469,79.548813 79.813858,77.507317 
	C80.576973,77.074173 81.355560,77.050095 82.519836,77.039307 
	C82.925842,78.769478 82.946167,80.486366 82.968849,82.637817 
	C82.971207,83.072380 82.950584,83.472137 82.928909,83.669998 
	C82.907234,83.867851 82.446724,83.916840 82.214798,83.917191 
	C81.417839,83.592796 80.852814,83.268044 79.952286,82.878487 
z"/>
<path fill="#024779" opacity="1.000000" stroke="none" 
	d="
M76.812996,76.807907 
	C75.253395,77.634132 73.468048,78.190193 71.324692,78.697014 
	C72.840195,77.944435 74.713730,77.241081 76.812996,76.807907 
z"/>
<path fill="#024779" opacity="1.000000" stroke="none" 
	d="
M50.172043,78.111633 
	C50.709366,79.669312 50.946999,81.354897 51.325577,83.446472 
	C48.234104,82.748627 48.506344,80.649406 50.172043,78.111633 
z"/>
<path fill="#024779" opacity="1.000000" stroke="none" 
	d="
M56.937721,77.704063 
	C55.834232,77.860596 54.673096,77.674568 53.248428,77.253777 
	C54.283287,77.133179 55.581680,77.247337 56.937721,77.704063 
z"/>
<path fill="#024779" opacity="1.000000" stroke="none" 
	d="
M64.324501,86.598038 
	C64.820190,86.353485 65.523186,86.265724 66.576187,86.252136 
	C66.128059,86.469131 65.329933,86.611977 64.324501,86.598038 
z"/>
<path fill="#024779" opacity="1.000000" stroke="none" 
	d="
M63.907158,78.766701 
	C63.831112,78.932159 63.664700,78.953293 63.253574,78.915863 
	C63.278172,78.778999 63.547482,78.700684 63.907158,78.766701 
z"/>
</svg>